<?xml version="1.0" encoding="UTF-8"?>
<!DOCTYPE svg PUBLIC "-//W3C//DTD SVG 1.1//EN" "http://www.w3.org/Graphics/SVG/1.1/DTD/svg11.dtd">
<svg version="1.2" width="89.38mm" height="149.9mm" viewBox="0 0 8938 14990" preserveAspectRatio="xMidYMid" fill-rule="evenodd" stroke-width="28.222" stroke-linejoin="round" xmlns="http://www.w3.org/2000/svg" xmlns:ooo="http://xml.openoffice.org/svg/export" xmlns:xlink="http://www.w3.org/1999/xlink" xmlns:presentation="http://sun.com/xmlns/staroffice/presentation" xmlns:smil="http://www.w3.org/2001/SMIL20/" xmlns:anim="urn:oasis:names:tc:opendocument:xmlns:animation:1.0" xml:space="preserve">
 <defs class="ClipPathGroup">
  <clipPath id="presentation_clip_path" clipPathUnits="userSpaceOnUse">
   <rect x="0" y="0" width="8938" height="14990"/>
  </clipPath>
  <clipPath id="presentation_clip_path_shrink" clipPathUnits="userSpaceOnUse">
   <rect x="8" y="14" width="8921" height="14961"/>
  </clipPath>
 </defs>
 <defs class="TextShapeIndex">
  <g ooo:slide="id1" ooo:id-list="id3 id4 id5 id6 id7 id8 id9 id10 id11 id12 id13 id14 id15 id16 id17 id18"/>
 </defs>
 <defs class="EmbeddedBulletChars">
  <g id="bullet-char-template-57356" transform="scale(0.00048828125,-0.00048828125)">
   <path d="M 580,1141 L 1163,571 580,0 -4,571 580,1141 Z"/>
  </g>
  <g id="bullet-char-template-57354" transform="scale(0.00048828125,-0.00048828125)">
   <path d="M 8,1128 L 1137,1128 1137,0 8,0 8,1128 Z"/>
  </g>
  <g id="bullet-char-template-10146" transform="scale(0.00048828125,-0.00048828125)">
   <path d="M 174,0 L 602,739 174,1481 1456,739 174,0 Z M 1358,739 L 309,1346 659,739 1358,739 Z"/>
  </g>
  <g id="bullet-char-template-10132" transform="scale(0.00048828125,-0.00048828125)">
   <path d="M 2015,739 L 1276,0 717,0 1260,543 174,543 174,936 1260,936 717,1481 1274,1481 2015,739 Z"/>
  </g>
  <g id="bullet-char-template-10007" transform="scale(0.00048828125,-0.00048828125)">
   <path d="M 0,-2 C -7,14 -16,27 -25,37 L 356,567 C 262,823 215,952 215,954 215,979 228,992 255,992 264,992 276,990 289,987 310,991 331,999 354,1012 L 381,999 492,748 772,1049 836,1024 860,1049 C 881,1039 901,1025 922,1006 886,937 835,863 770,784 769,783 710,716 594,584 L 774,223 C 774,196 753,168 711,139 L 727,119 C 717,90 699,76 672,76 641,76 570,178 457,381 L 164,-76 C 142,-110 111,-127 72,-127 30,-127 9,-110 8,-76 1,-67 -2,-52 -2,-32 -2,-23 -1,-13 0,-2 Z"/>
  </g>
  <g id="bullet-char-template-10004" transform="scale(0.00048828125,-0.00048828125)">
   <path d="M 285,-33 C 182,-33 111,30 74,156 52,228 41,333 41,471 41,549 55,616 82,672 116,743 169,778 240,778 293,778 328,747 346,684 L 369,508 C 377,444 397,411 428,410 L 1163,1116 C 1174,1127 1196,1133 1229,1133 1271,1133 1292,1118 1292,1087 L 1292,965 C 1292,929 1282,901 1262,881 L 442,47 C 390,-6 338,-33 285,-33 Z"/>
  </g>
  <g id="bullet-char-template-9679" transform="scale(0.00048828125,-0.00048828125)">
   <path d="M 813,0 C 632,0 489,54 383,161 276,268 223,411 223,592 223,773 276,916 383,1023 489,1130 632,1184 813,1184 992,1184 1136,1130 1245,1023 1353,916 1407,772 1407,592 1407,412 1353,268 1245,161 1136,54 992,0 813,0 Z"/>
  </g>
  <g id="bullet-char-template-8226" transform="scale(0.00048828125,-0.00048828125)">
   <path d="M 346,457 C 273,457 209,483 155,535 101,586 74,649 74,723 74,796 101,859 155,911 209,963 273,989 346,989 419,989 480,963 531,910 582,859 608,796 608,723 608,648 583,586 532,535 482,483 420,457 346,457 Z"/>
  </g>
  <g id="bullet-char-template-8211" transform="scale(0.00048828125,-0.00048828125)">
   <path d="M -4,459 L 1135,459 1135,606 -4,606 -4,459 Z"/>
  </g>
  <g id="bullet-char-template-61548" transform="scale(0.00048828125,-0.00048828125)">
   <path d="M 173,740 C 173,903 231,1043 346,1159 462,1274 601,1332 765,1332 928,1332 1067,1274 1183,1159 1299,1043 1357,903 1357,740 1357,577 1299,437 1183,322 1067,206 928,148 765,148 601,148 462,206 346,322 231,437 173,577 173,740 Z"/>
  </g>
 </defs>
 <g>
  <g id="id2" class="Master_Slide">
   <g id="bg-id2" class="Background"/>
   <g id="bo-id2" class="BackgroundObjects"/>
  </g>
 </g>
 <g class="SlideGroup">
  <g>
   <g id="container-id1">
    <g id="id1" class="Slide" clip-path="url(#presentation_clip_path)">
     <g class="Page">
      <g class="com.sun.star.drawing.PolyPolygonShape">
       <g id="id3">
        <rect class="BoundingBox" stroke="none" fill="none" x="1303" y="9641" width="659" height="2429"/>
        <path fill="rgb(42,96,153)" stroke="none" d="M 1775,9920 L 1688,10285 1669,10516 1756,10487 1833,10232 1857,10021 1775,9920 Z M 1530,10593 L 1578,10088 1607,9761 1506,9737 1467,10078 1482,10584 1530,10593 Z M 1479,9641 L 1791,9892 1798,9899 1961,10129 1900,10285 1853,10584 1656,11357 1412,11913 1303,12069 1418,11289 1418,10441 1479,9641 Z"/>
       </g>
      </g>
      <g class="com.sun.star.drawing.PolyPolygonShape">
       <g id="id4">
        <rect class="BoundingBox" stroke="none" fill="none" x="5924" y="6956" width="665" height="361"/>
        <path fill="rgb(255,219,182)" stroke="none" d="M 5924,7060 L 5940,6956 6165,7042 6262,7067 6370,7091 6540,7126 6588,7190 6555,7272 6513,7316 6368,7294 6264,7269 6169,7258 6081,7234 6026,7217 5977,7179 5929,7135 5924,7060 Z"/>
       </g>
      </g>
      <g class="com.sun.star.drawing.PolyPolygonShape">
       <g id="id5">
        <rect class="BoundingBox" stroke="none" fill="none" x="1468" y="6496" width="5121" height="4417"/>
        <path fill="rgb(255,245,206)" stroke="none" d="M 2641,6912 L 2813,6815 3078,6723 3299,6647 3515,6550 3688,6496 3942,6496 4082,6653 4142,6890 4169,7085 4174,7214 4450,7409 4763,7533 5233,7544 5416,7522 5459,7365 5481,7079 5594,6777 5697,6847 5945,6966 5935,7069 5983,7187 6150,7247 6329,7290 6496,7295 6437,7457 6469,7581 6496,7835 6464,8105 6458,8246 6550,8381 6588,8656 6523,8942 6388,9180 6285,9439 6140,9682 6075,9817 6096,9957 6118,10216 5945,10497 5692,10713 5319,10864 4693,10902 3904,10912 3397,10880 2733,10583 1987,10146 1847,9973 1626,9736 1469,9650 1496,9304 1637,8667 1745,8343 1863,7965 2149,7349 2392,7041 2641,6912 Z"/>
       </g>
      </g>
      <g class="com.sun.star.drawing.PolyPolygonShape">
       <g id="id6">
        <rect class="BoundingBox" stroke="none" fill="none" x="2" y="5642" width="2972" height="8503"/>
        <path fill="rgb(180,199,220)" stroke="none" d="M 1343,14144 L 2,13740 2,11425 2,11389 2,5642 31,5652 151,5724 488,5950 849,6210 1243,6513 1604,6672 1989,6768 2383,6792 2696,6864 2657,6879 2542,6956 2273,7163 2080,7490 1888,7899 1638,8644 1517,9294 1488,9664 1460,10318 1431,11420 1369,11999 1409,11942 1590,11521 1704,11118 1914,11185 2077,11245 2353,11371 2786,11455 2973,11569 2846,11702 2678,11714 2407,11786 2095,12020 1956,12171 1866,12087 1734,12141 1524,12310 1367,12544 1331,12694 1379,12851 1548,13115 1602,13254 1524,13410 1403,13813 1343,14144 Z"/>
       </g>
      </g>
      <g class="com.sun.star.drawing.PolyPolygonShape">
       <g id="id7">
        <rect class="BoundingBox" stroke="none" fill="none" x="1010" y="49" width="7929" height="14067"/>
        <path fill="rgb(255,191,0)" stroke="none" d="M 1833,12103 L 1972,12055 2069,12041 2062,12050 2267,11890 2591,11733 2791,11696 2894,11615 3072,11528 3305,11430 3322,11292 3436,11182 3615,11007 3725,10925 4184,10913 4567,10905 4844,10889 5088,10889 5349,10836 5475,10816 5589,10763 5752,10669 5809,10755 5971,10974 6122,11186 6248,11390 6293,11601 6444,11658 6830,11792 7172,11910 7425,11857 7579,11890 7771,11983 7851,12094 7683,11949 7457,11882 7235,11901 7418,12079 7692,12214 7880,12214 7857,12101 7889,12146 7917,12297 8104,12590 8157,12822 8076,13090 7913,13375 7795,13384 7567,13371 7425,13449 7311,13587 7193,13717 7018,13843 6981,13818 6981,13823 6927,13813 6733,13732 6474,13769 6382,13867 6263,13964 5853,14061 5648,14039 5550,13969 5340,13991 4730,14115 4109,14023 3520,13942 2786,13742 2165,13548 1754,13294 1436,12981 1350,12673 1479,12381 1792,12133 1811,12134 1833,12103 Z M 4012,6479 L 3964,6404 3931,6360 3737,6069 3683,5901 3429,5740 3024,5507 2608,5173 2670,5174 2619,5157 2144,4892 1749,4574 1717,4341 1776,4152 1474,3623 1231,2878 1048,1803 1010,681 1280,432 2430,157 3342,49 4482,70 5275,60 6469,151 7770,330 8764,627 8893,805 8938,1075 8893,1334 8791,2101 8585,3034 8143,3979 7883,4363 8008,4498 7916,4752 7419,5065 6620,5367 6480,5386 6566,5410 7058,5270 6853,5448 6421,5680 6005,5896 5967,5993 5854,6263 5654,6544 5454,7208 5427,7446 5298,7538 4785,7548 4520,7413 4147,7208 4218,7084 4137,6841 4012,6479 Z"/>
       </g>
      </g>
      <g class="com.sun.star.drawing.PolyPolygonShape">
       <g id="id8">
        <rect class="BoundingBox" stroke="none" fill="none" x="1669" y="9920" width="189" height="597"/>
        <path fill="rgb(129,212,26)" stroke="none" d="M 1775,9920 L 1688,10285 1669,10516 1756,10487 1833,10232 1857,10021 1775,9920 Z"/>
       </g>
      </g>
      <g class="com.sun.star.drawing.PolyPolygonShape">
       <g id="id9">
        <rect class="BoundingBox" stroke="none" fill="none" x="1467" y="9737" width="141" height="857"/>
        <path fill="rgb(129,212,26)" stroke="none" d="M 1530,10593 L 1482,10584 1467,10078 1506,9737 1607,9761 1578,10088 1530,10593 Z"/>
       </g>
      </g>
      <g class="com.sun.star.drawing.PolyPolygonShape">
       <g id="id10">
        <rect class="BoundingBox" stroke="none" fill="none" x="7269" y="11859" width="594" height="419"/>
        <path fill="rgb(255,245,206)" stroke="none" d="M 7269,11883 L 7375,11859 7553,11897 7745,11979 7861,12109 7851,12215 7788,12277 7577,12176 7331,12041 7269,11883 Z"/>
       </g>
      </g>
      <g class="com.sun.star.drawing.PolyPolygonShape">
       <g id="id11">
        <rect class="BoundingBox" stroke="none" fill="none" x="8248" y="13066" width="259" height="520"/>
        <path fill="rgb(255,219,182)" stroke="none" d="M 8506,13066 L 8414,13352 8333,13585 8248,13532 8248,13363 8280,13218 8322,13134 8396,13088 8506,13066 Z"/>
       </g>
      </g>
      <g class="com.sun.star.drawing.PolyPolygonShape">
       <g id="id12">
        <rect class="BoundingBox" stroke="none" fill="none" x="5207" y="14087" width="530" height="372"/>
        <path fill="rgb(255,219,182)" stroke="none" d="M 5207,14355 L 5245,14415 5348,14432 5397,14457 5570,14298 5736,14090 5616,14087 5531,14104 5387,14196 5369,14217 5207,14355 Z"/>
       </g>
      </g>
      <g class="com.sun.star.drawing.PolyPolygonShape">
       <g id="id13">
        <rect class="BoundingBox" stroke="none" fill="none" x="6353" y="13900" width="506" height="474"/>
        <path fill="rgb(255,219,182)" stroke="none" d="M 6858,13942 L 6678,14373 6523,14330 6353,14305 6378,14171 6473,13988 6523,13900 6681,13921 6858,13942 Z"/>
       </g>
      </g>
      <g class="com.sun.star.drawing.PolyPolygonShape">
       <g id="id14">
        <rect class="BoundingBox" stroke="none" fill="none" x="7345" y="13484" width="400" height="540"/>
        <path fill="rgb(255,219,182)" stroke="none" d="M 7744,13484 L 7649,14023 7455,13984 7345,13889 7398,13732 7419,13618 7483,13496 7744,13484 Z"/>
       </g>
      </g>
      <g class="com.sun.star.drawing.PolyPolygonShape">
       <g id="id15">
        <rect class="BoundingBox" stroke="none" fill="none" x="6602" y="12868" width="1915" height="1726"/>
        <path fill="rgb(255,245,206)" stroke="none" d="M 7656,13988 L 7497,13979 7365,13931 7360,13838 7400,13697 7462,13538 7554,13534 7695,13534 7788,13534 7757,13415 7554,13401 7373,13485 7210,13697 6897,14081 6765,14208 6663,14363 6602,14561 6858,14592 7232,14574 7453,14455 7625,14200 7801,14147 8039,14041 8145,13917 8216,13803 8330,13600 8335,13569 8264,13529 8238,13388 8291,13185 8357,13102 8494,13035 8516,12943 8494,12908 8339,12868 8229,12894 8022,13190 7801,13525 7656,13988 Z"/>
       </g>
      </g>
      <g class="com.sun.star.drawing.PolyPolygonShape">
       <g id="id16">
        <rect class="BoundingBox" stroke="none" fill="none" x="5102" y="13745" width="1760" height="1215"/>
        <path fill="rgb(255,245,206)" stroke="none" d="M 5102,14782 L 5225,14852 5591,14901 5874,14954 6178,14958 6359,14887 6522,14671 6636,14504 6689,14345 6548,14332 6385,14319 6332,14261 6363,14195 6442,14010 6473,13979 6531,13939 6588,13922 6861,13908 6804,13789 6575,13745 6412,13820 6222,13983 5821,14204 5591,14283 5415,14460 5344,14429 5318,14438 5102,14782 Z"/>
       </g>
      </g>
      <g class="com.sun.star.drawing.PolyPolygonShape">
       <g id="id17">
        <rect class="BoundingBox" stroke="none" fill="none" x="1601" y="13291" width="4036" height="1664"/>
        <path fill="rgb(255,245,206)" stroke="none" d="M 5424,14504 L 5297,14446 5199,14402 5217,14323 5327,14235 5433,14155 5517,14089 5636,14085 5614,14014 5416,13970 5160,14041 4785,14173 4291,14076 3683,14014 2849,13811 2456,13648 2024,13445 1764,13291 1601,13410 1751,13569 1993,13750 2439,14023 2959,14230 3418,14380 3819,14557 4176,14768 4441,14892 4622,14954 4913,14870 5120,14782 5424,14504 Z"/>
       </g>
      </g>
      <g class="Graphic">
       <g id="id18">
        <rect class="BoundingBox" stroke="none" fill="none" x="0" y="0" width="8938" height="14990"/>
        <defs>
         <clipPath id="clip_path_1" clipPathUnits="userSpaceOnUse">
          <path d="M 0,0 L 8937,0 8937,14989 0,14989 0,0 Z"/>
         </clipPath>
        </defs>
        <g clip-path="url(#clip_path_1)">
         <path fill="rgb(0,0,0)" stroke="none" d="M 4500,14978 C 4321,14906 4144,14818 4107,14782 3961,14641 3612,14469 3323,14395 3039,14323 2706,14198 2330,14025 2187,13959 1958,13783 1741,13575 1663,13500 1588,13451 1573,13466 1528,13511 1445,13871 1443,14031 1441,14203 1375,14241 1313,14105 1285,14044 1293,13965 1349,13734 1388,13574 1449,13376 1484,13295 1549,13150 1549,13148 1486,13079 1289,12864 1268,12583 1433,12368 1527,12244 1694,12121 1827,12079 1896,12057 1898,12061 1859,12123 1836,12160 1793,12198 1763,12208 1671,12237 1447,12490 1417,12600 1370,12768 1430,12909 1629,13102 1984,13446 2870,13782 3758,13910 4233,13979 4279,13984 4682,14009 4984,14028 5062,14023 5188,13975 5356,13911 5574,13923 5652,14002 5685,14035 5723,14042 5768,14025 5806,14010 5912,13989 6004,13976 6096,13963 6188,13933 6208,13908 6229,13883 6261,13872 6279,13884 6298,13895 6303,13889 6292,13871 6270,13835 6374,13754 6481,13722 6570,13696 6328,13724 6061,13770 5698,13834 4400,13824 3971,13754 3218,13631 2497,13460 2440,13391 2420,13367 2392,13348 2378,13348 2311,13348 1933,13091 1764,12930 1596,12770 1576,12737 1576,12623 1576,12489 1702,12234 1729,12313 1737,12337 1728,12373 1708,12392 1650,12450 1667,12625 1739,12716 1865,12877 2315,13136 2758,13304 3001,13395 3104,13403 2882,13313 2350,13097 1984,12896 1867,12755 1782,12653 1864,12667 2000,12778 2196,12938 2495,13105 2701,13169 3134,13305 3230,13358 3095,13387 3026,13403 3387,13485 3923,13577 4556,13685 6013,13664 5989,13547 5985,13526 6009,13508 6043,13508 6306,13508 7300,13155 7470,13001 7527,12950 7533,12950 7570,13001 7607,13051 7621,13045 7728,12935 7844,12817 7878,12737 7814,12737 7796,12737 7782,12715 7782,12688 7782,12630 7834,12624 7857,12680 7889,12759 7878,12579 7846,12495 7821,12430 7823,12413 7854,12423 7876,12430 7914,12497 7938,12572 7977,12692 7976,12725 7927,12854 7871,13000 7717,13181 7541,13308 L 7444,13378 7553,13348 C 7621,13329 7683,13329 7719,13349 7809,13397 7853,13362 7983,13140 8111,12921 8123,12856 8069,12663 8033,12533 7865,12319 7800,12319 7778,12319 7726,12290 7685,12254 7644,12219 7603,12197 7594,12207 7584,12216 7609,12246 7649,12274 7916,12461 7689,12846 7157,13108 6820,13275 6587,13335 5917,13430 5405,13503 4246,13475 3778,13379 2721,13162 2366,13033 2034,12743 1923,12647 1891,12594 1868,12468 1843,12331 1849,12297 1914,12194 2032,12009 2154,11904 2392,11783 2658,11648 2897,11624 2974,11726 3045,11820 3033,11877 2911,12019 2716,12248 2198,12453 2075,12351 2007,12295 1929,12335 1929,12426 1929,12528 2086,12680 2347,12830 2579,12964 2647,12992 2974,13086 3421,13215 3816,13296 4261,13350 4531,13382 5661,13395 5804,13368 5840,13361 5934,13345 6013,13333 6310,13287 6840,13143 7033,13057 7309,12933 7562,12759 7627,12648 7676,12566 7677,12540 7638,12413 7613,12335 7592,12293 7591,12322 7590,12350 7562,12397 7530,12426 7413,12532 7159,12471 6862,12267 6667,12132 6582,12007 6598,11877 6611,11773 6544,11745 6497,11834 6477,11871 6440,11901 6414,11901 6388,11901 6367,11922 6367,11949 6367,12007 6463,12015 6464,11957 6465,11934 6486,11944 6513,11979 6582,12071 6521,12109 6403,12047 6348,12019 6303,11982 6303,11967 6303,11894 6347,11836 6403,11836 6442,11836 6463,11814 6463,11772 6463,11684 6359,11688 6318,11777 6278,11866 5921,12049 5627,12131 5406,12193 4445,12181 4163,12112 3577,11970 3248,11786 3248,11600 3248,11539 3235,11522 3200,11535 3173,11545 3158,11564 3167,11578 3175,11591 3142,11601 3094,11601 3046,11600 2981,11611 2950,11625 2915,11641 2894,11637 2894,11613 2894,11571 3137,11452 3224,11451 3261,11451 3280,11425 3280,11377 3280,11331 3340,11244 3439,11146 3597,10990 3616,10937 3511,10935 3481,10934 3399,10906 3328,10871 3257,10837 3189,10809 3176,10808 3071,10803 2057,10286 1957,10187 1893,10123 1865,10110 1865,10144 1865,10171 1850,10264 1831,10351 1805,10472 1778,10518 1714,10547 L 1631,10585 1651,10431 C 1714,9956 1715,9842 1661,9842 1618,9842 1608,9877 1608,10027 1607,10307 1570,10647 1541,10629 1503,10606 1485,10704 1486,10926 1486,11175 1447,11525 1421,11499 1383,11461 1419,9793 1466,9426 1570,8625 1841,7799 2168,7287 2361,6986 2544,6858 2929,6755 3007,6734 3177,6665 3307,6602 3500,6508 3582,6486 3750,6484 3863,6483 3955,6476 3955,6470 3955,6443 3756,6112 3731,6096 3715,6087 3694,6039 3683,5991 3666,5920 3614,5880 3415,5783 3172,5665 2969,5527 2663,5271 2578,5200 2396,5084 2259,5013 1998,4879 1809,4721 1700,4545 1633,4436 1640,4341 1722,4246 1758,4205 1750,4175 1667,4053 1251,3437 974,2303 956,1132 L 949,681 1045,580 C 1227,389 1583,257 2219,146 3272,-37 4974,-49 6624,116 7670,221 8616,451 8835,654 8905,719 8939,862 8875,822 8839,800 8832,869 8862,948 8873,976 8895,990 8911,981 8947,958 8946,1150 8908,1545 8845,2205 8717,2756 8505,3280 8324,3727 8296,3782 8098,4080 8013,4210 7943,4326 7943,4338 7943,4350 7972,4378 8007,4400 8091,4453 8091,4599 8006,4707 7931,4802 7552,5061 7386,5130 7324,5156 7160,5263 7021,5368 6729,5588 6419,5761 6178,5840 6030,5889 6011,5905 6026,5967 6039,6017 6000,6103 5895,6260 5710,6535 5616,6744 5533,7067 5474,7294 5473,7322 5519,7356 5547,7377 5587,7387 5608,7379 5629,7371 5709,7386 5786,7414 5941,7469 6196,7478 6309,7433 6421,7388 6565,7239 6553,7178 6547,7146 6499,7117 6431,7105 L 6319,7085 6421,7081 C 6477,7079 6545,7086 6573,7096 6649,7125 6635,7252 6545,7359 6467,7452 6466,7456 6515,7627 6558,7779 6559,7826 6520,7995 6479,8172 6480,8196 6534,8283 6637,8452 6663,8601 6612,8739 6439,9211 6148,9805 6067,9856 6028,9880 5925,9925 5836,9956 5748,9988 5636,10050 5587,10095 5509,10167 5464,10178 5201,10190 4953,10201 4873,10218 4717,10297 4531,10390 4529,10390 4552,10317 4565,10277 4591,10234 4611,10221 4632,10207 4633,10195 4614,10193 4575,10188 4694,10161 5211,10057 5432,10013 5709,9938 5826,9891 L 6039,9806 6079,9595 C 6114,9406 6123,9391 6156,9453 6192,9521 6195,9520 6245,9415 L 6296,9307 6082,9347 C 5834,9393 5657,9414 5261,9445 5034,9462 4979,9458 4999,9426 5018,9396 5009,9393 4964,9416 4931,9433 4831,9448 4743,9449 4617,9451 4600,9446 4663,9425 4738,9400 4736,9398 4633,9395 4524,9392 4518,9358 4623,9336 4654,9329 4867,9324 5097,9325 5327,9326 5678,9305 5878,9279 6078,9253 6249,9231 6258,9231 6267,9231 6267,9219 6257,9204 6248,9188 6270,9148 6308,9115 6426,9010 6562,8684 6541,8556 6519,8419 6463,8267 6435,8267 6424,8267 6381,8310 6340,8363 6233,8498 6102,8523 5483,8526 5182,8528 4950,8534 4968,8541 4986,8547 5065,8569 5144,8590 5266,8621 5278,8631 5228,8660 5098,8732 4566,8676 4566,8590 4566,8499 5093,8425 5643,8440 6154,8453 6323,8369 6417,8056 6484,7834 6478,7614 6402,7546 6352,7500 6319,7496 6217,7522 6149,7540 5789,7564 5416,7576 L 4739,7598 4411,7432 C 4016,7231 3942,7133 4132,7067 4172,7052 4103,6778 4025,6644 3975,6558 3951,6548 3777,6537 3610,6527 3561,6539 3392,6630 3286,6687 3065,6780 2901,6837 2619,6936 2393,7079 2244,7253 2174,7335 1924,7900 1845,8154 1813,8260 1774,8352 1761,8358 1747,8364 1743,8379 1751,8392 1759,8405 1736,8523 1701,8655 1612,8981 1545,9349 1544,9509 1544,9625 1555,9646 1636,9680 1747,9726 1882,9864 1911,9961 1923,10000 1983,10063 2043,10101 2104,10138 2165,10188 2178,10211 2209,10263 3090,10690 3392,10799 3638,10887 3655,10888 4454,10854 4754,10842 5047,10831 5105,10830 5162,10829 5209,10816 5209,10802 5209,10787 5253,10775 5306,10775 5359,10775 5402,10760 5402,10741 5402,10722 5414,10714 5429,10723 5443,10732 5455,10715 5455,10685 5455,10459 5469,10378 5502,10412 5522,10432 5533,10514 5526,10595 5520,10676 5523,10743 5533,10743 5543,10743 5651,10674 5774,10590 5975,10452 6003,10420 6057,10260 6101,10127 6108,10062 6084,9997 6060,9932 6063,9907 6095,9895 6146,9875 6174,9942 6174,10084 6174,10247 6120,10358 5965,10518 L 5823,10662 5881,10791 C 5913,10862 6028,11026 6137,11156 6294,11344 6335,11414 6335,11501 6335,11589 6348,11611 6397,11611 6432,11611 6558,11647 6679,11690 7005,11808 7151,11839 7407,11847 7586,11852 7665,11871 7761,11930 7885,12007 7982,12166 7952,12244 7943,12267 7976,12333 8025,12391 8128,12513 8200,12671 8200,12776 8200,12841 8215,12849 8346,12849 8440,12849 8502,12866 8522,12897 8554,12947 8551,13050 8516,13107 8505,13124 8464,13247 8426,13380 8385,13520 8293,13718 8205,13853 8081,14045 8029,14097 7905,14151 7822,14187 7727,14216 7693,14216 7656,14216 7604,14267 7557,14353 7452,14542 7384,14593 7189,14634 7021,14668 6928,14663 6732,14606 6629,14576 6560,14607 6560,14682 6560,14736 6360,14943 6287,14966 6168,15003 6000,14996 5660,14943 5213,14872 5177,14863 5177,14826 5177,14775 5438,14790 5695,14856 6109,14962 6225,14956 6362,14822 6442,14744 6817,14044 6817,13973 6817,13965 6759,13959 6689,13959 6538,13959 6512,13906 6661,13901 6793,13898 6844,13847 6761,13802 6618,13726 6329,13879 6135,14136 6069,14224 5996,14302 5974,14309 5951,14316 5960,14291 5994,14253 6028,14215 6048,14176 6039,14167 6010,14138 5923,14297 5899,14420 5868,14586 5807,14572 5833,14406 5853,14284 5850,14278 5802,14326 5770,14358 5707,14375 5641,14371 5582,14367 5528,14370 5522,14378 5371,14579 5170,14781 5074,14831 4849,14945 4588,15012 4500,14978 L 4500,14978 Z M 5302,14557 C 5347,14502 5435,14406 5497,14343 5560,14280 5637,14199 5668,14163 5722,14100 5722,14098 5652,14106 5612,14111 5561,14115 5539,14117 5492,14120 5241,14340 5241,14378 5241,14393 5274,14410 5314,14417 5379,14429 5381,14432 5327,14456 5238,14496 5160,14405 5207,14317 5252,14233 5462,14087 5538,14087 5622,14087 5608,14027 5519,14005 5386,13972 5200,14048 5039,14201 4854,14377 4629,14479 4672,14367 4681,14344 4664,14323 4635,14320 4455,14299 4271,14255 4351,14252 4402,14250 4433,14234 4421,14216 4393,14169 4270,14177 4136,14232 4068,14261 4020,14268 4020,14249 4020,14231 4034,14216 4052,14216 4069,14216 4084,14196 4084,14171 4084,14119 3886,14069 3569,14040 3344,14019 2977,13928 2713,13826 2623,13792 2496,13755 2433,13744 2365,13733 2325,13712 2337,13692 2349,13673 2341,13669 2318,13683 2265,13717 2115,13675 2140,13634 2154,13612 2119,13608 2037,13621 1945,13637 1926,13633 1962,13608 1988,13589 2038,13574 2071,13573 2105,13573 2124,13564 2114,13554 2087,13527 1897,13572 1897,13605 1897,13643 2268,13902 2466,14002 2630,14085 3274,14312 3345,14312 3433,14312 3817,14492 4004,14620 4263,14797 4499,14920 4584,14922 4621,14923 4742,14887 4854,14844 5105,14745 5198,14686 5302,14557 Z M 7331,14498 C 7481,14412 7610,14160 7639,13895 7644,13850 7664,13763 7683,13702 7731,13544 7728,13531 7639,13553 7596,13564 7552,13559 7542,13543 7532,13526 7571,13508 7628,13503 7773,13489 7744,13427 7596,13434 7499,13439 7453,13466 7353,13578 7285,13655 7188,13804 7138,13910 7024,14151 6920,14278 6884,14220 6870,14197 6845,14181 6830,14185 6802,14191 6657,14465 6657,14511 6656,14546 6753,14562 6988,14566 7160,14569 7233,14555 7331,14498 Z M 7412,13964 C 7323,13934 7316,13825 7395,13671 7484,13497 7505,13504 7426,13682 7362,13828 7370,13927 7446,13927 7469,13927 7498,13941 7509,13959 7530,13994 7509,13995 7412,13964 L 7412,13964 Z M 4823,14267 C 4823,14237 4801,14228 4756,14240 4705,14253 4700,14264 4732,14284 4795,14324 4823,14319 4823,14267 Z M 7864,14098 C 8088,14022 8241,13818 8344,13460 8374,13354 8410,13253 8423,13235 8437,13217 8455,13173 8464,13136 8479,13075 8473,13072 8404,13104 8317,13143 8248,13343 8278,13465 8293,13521 8284,13541 8245,13541 8201,13541 8196,13517 8215,13392 8246,13183 8286,13111 8395,13063 8493,13019 8520,12940 8447,12911 8364,12880 8234,12961 8148,13097 8100,13173 8035,13274 8002,13322 7969,13370 7943,13438 7943,13473 7943,13508 7928,13575 7910,13622 7884,13690 7868,13701 7834,13672 7799,13643 7780,13676 7736,13838 7706,13949 7674,14064 7665,14095 7645,14165 7666,14165 7864,14098 L 7864,14098 Z M 7036,14006 C 7026,13996 7008,14014 6996,14046 6979,14092 6982,14095 7014,14064 7036,14042 7046,14016 7036,14006 Z M 5937,13705 C 5983,13678 5901,13674 5595,13690 5163,13713 4325,13710 4245,13686 4218,13678 4146,13663 4084,13652 4022,13641 3856,13611 3714,13585 3573,13559 3383,13525 3293,13510 2734,13413 2096,13121 1757,12804 1664,12718 1642,12707 1670,12762 1724,12867 2042,13109 2267,13216 2826,13482 3582,13682 4180,13723 4331,13733 4461,13748 4470,13757 4502,13790 5876,13742 5937,13705 L 5937,13705 Z M 7107,13734 C 7140,13734 7176,13702 7189,13664 7201,13626 7263,13545 7327,13484 7392,13422 7425,13383 7401,13396 7378,13409 7175,13482 6951,13559 6555,13696 6548,13700 6705,13701 6793,13702 6887,13717 6914,13734 6940,13751 6981,13758 7005,13749 7028,13741 7074,13734 7107,13734 Z M 7203,13397 C 7431,13302 7653,13164 7653,13116 7653,13100 7613,13114 7565,13148 7306,13331 6786,13520 6303,13607 6135,13637 6035,13664 6082,13666 6129,13668 6288,13647 6436,13619 6769,13557 6935,13509 7203,13397 Z M 1951,13490 C 1918,13500 1871,13508 1846,13508 1821,13508 1801,13523 1801,13541 1801,13585 1834,13579 1929,13521 1974,13494 1983,13480 1951,13490 Z M 1851,13432 C 1795,13453 1785,13476 1831,13476 1848,13476 1870,13462 1881,13445 1892,13426 1879,13421 1851,13432 Z M 1805,13387 C 1782,13379 1748,13388 1729,13407 1705,13430 1718,13435 1771,13421 1815,13409 1829,13395 1805,13387 Z M 7541,13089 L 7444,13128 C 7391,13149 7327,13185 7302,13207 7226,13275 7366,13227 7460,13152 L 7541,13089 Z M 7519,12308 C 7535,12226 7415,12107 7187,11981 6950,11849 6792,11815 6706,11879 6645,11924 6645,11927 6704,12017 6793,12152 6822,12176 7030,12285 7253,12401 7499,12413 7519,12308 L 7519,12308 Z M 7314,12256 C 7367,12236 7356,12221 7233,12148 7064,12046 7087,12034 7270,12127 7341,12163 7407,12215 7418,12241 7441,12302 7431,12308 7332,12292 7260,12280 7258,12276 7314,12256 Z M 2874,11750 C 2799,11721 2424,11824 2264,11918 2077,12026 1968,12218 2047,12297 2104,12354 2323,12311 2534,12203 2896,12017 3046,11816 2874,11750 Z M 2174,12196 C 2130,12124 2471,11853 2531,11913 2541,11923 2515,11945 2472,11963 2384,12000 2283,12075 2283,12104 2283,12115 2330,12116 2388,12106 2487,12090 2489,12091 2430,12139 2395,12167 2350,12190 2328,12190 2306,12190 2267,12198 2241,12208 2215,12218 2185,12213 2174,12196 L 2174,12196 Z M 7828,12168 C 7855,12098 7772,12021 7596,11953 7448,11896 7332,11885 7332,11927 7332,11980 7513,12124 7637,12168 7808,12230 7804,12230 7828,12168 L 7828,12168 Z M 5353,12077 C 5589,12040 5995,11904 6118,11820 6224,11747 6238,11722 6238,11604 L 6238,11470 6175,11539 C 6140,11576 6024,11646 5917,11694 5705,11789 5675,11843 5880,11762 6008,11710 6045,11717 6045,11793 6045,11881 5677,11981 5221,12016 4896,12042 4894,11982 5218,11932 5363,11909 5533,11871 5595,11847 5697,11807 5698,11805 5611,11823 5342,11878 5133,11889 4763,11865 4347,11838 4259,11826 4036,11767 3867,11723 3456,11533 3427,11486 3391,11428 3344,11478 3344,11575 3344,11716 3439,11781 3877,11943 4018,11995 4503,12087 4711,12102 4884,12113 5194,12101 5353,12077 L 5353,12077 Z M 3490,11710 C 3446,11638 3546,11650 3737,11738 3851,11790 4011,11851 4094,11874 4252,11916 4296,11967 4172,11963 4132,11961 4013,11935 3907,11904 3703,11845 3522,11760 3490,11710 Z M 5430,11770 C 5640,11736 6014,11585 6116,11493 6188,11428 6190,11360 6121,11284 6056,11213 6008,11207 6034,11273 6044,11300 6044,11344 6033,11371 6016,11415 6003,11414 5909,11367 5851,11337 5735,11256 5651,11186 L 5499,11058 5499,11144 C 5499,11203 5511,11222 5539,11205 5570,11186 5571,11192 5543,11227 5523,11253 5490,11326 5470,11390 5431,11510 5364,11587 5266,11621 5153,11661 4949,11415 4832,11099 4805,11026 4798,11031 4701,11204 4575,11426 4372,11586 4248,11560 4076,11524 3731,11410 3678,11371 3628,11334 3628,11321 3677,11174 L 3729,11016 3600,11153 C 3529,11228 3442,11290 3407,11290 3351,11290 3349,11298 3384,11357 3447,11461 3774,11610 4148,11705 4494,11793 5100,11824 5430,11770 L 5430,11770 Z M 5676,11627 C 5764,11585 5858,11551 5885,11551 5911,11552 5860,11587 5772,11629 5684,11672 5590,11706 5563,11705 5537,11703 5587,11668 5676,11627 Z M 3642,11462 C 3636,11442 3772,11474 3946,11534 4343,11671 4341,11670 4245,11672 4200,11673 4049,11634 3909,11586 3768,11538 3648,11482 3642,11462 Z M 5782,11466 C 5802,11486 5582,11579 5516,11579 5489,11579 5467,11573 5467,11566 5467,11544 5766,11449 5782,11466 Z M 5545,11369 C 5579,11343 5623,11322 5642,11323 5660,11323 5648,11345 5613,11371 5579,11397 5535,11418 5517,11417 5498,11417 5511,11395 5545,11369 Z M 5434,11167 C 5434,11049 5419,10930 5402,10904 5376,10864 5371,10866 5370,10920 5369,10974 5364,10977 5335,10936 5308,10898 5297,10897 5284,10929 5272,10960 5256,10961 5224,10935 5189,10906 5185,10929 5199,11062 5219,11251 5160,11292 5127,11113 5115,11051 5093,11009 5077,11018 5061,11028 5049,11014 5049,10986 5049,10958 5034,10936 5016,10936 4999,10936 4984,10956 4984,10981 4984,11006 4968,11032 4947,11039 4876,11063 4984,11281 5136,11421 L 5284,11558 5359,11470 C 5422,11397 5434,11347 5434,11167 Z M 4682,11012 C 4666,10970 4653,10968 4613,11001 4587,11023 4555,11032 4543,11020 4531,11008 4506,11045 4488,11101 4437,11253 4368,11262 4391,11113 4409,11004 4405,10996 4335,11006 4249,11018 4226,11120 4260,11344 4283,11500 4308,11510 4441,11416 4558,11333 4708,11081 4682,11012 Z M 4193,11406 C 4174,11355 3918,11274 3853,11298 3829,11307 3874,11343 3955,11380 4129,11459 4217,11468 4193,11406 Z M 5751,10828 L 5660,10735 5706,10868 C 5732,10941 5741,11000 5726,11000 5710,11000 5683,10957 5664,10904 5646,10851 5614,10807 5593,10807 5573,10807 5565,10830 5575,10858 5590,10897 5580,10903 5528,10887 5466,10867 5467,10873 5545,10992 5623,11110 5747,11222 5899,11313 6000,11372 6011,11363 5990,11233 5970,11102 5893,10972 5751,10828 Z M 3979,11182 C 3955,11197 3976,11220 4037,11246 4161,11299 4180,11299 4180,11245 4180,11193 4035,11148 3979,11182 Z M 3870,11192 C 3990,11121 4047,11032 3972,11032 3947,11032 3918,11047 3907,11064 3876,11115 3827,11102 3847,11048 3860,11014 3851,11005 3817,11018 3771,11036 3732,11127 3731,11217 3730,11270 3740,11269 3870,11192 Z M 4180,11060 C 4180,11004 4172,10999 4132,11032 4084,11072 4094,11129 4150,11129 4167,11129 4180,11098 4180,11060 Z M 1556,10140 C 1570,9878 1566,9746 1544,9746 1524,9746 1511,9896 1511,10153 1511,10377 1517,10555 1523,10547 1529,10540 1544,10357 1556,10140 Z M 1804,9994 C 1787,9977 1767,10036 1754,10137 1743,10231 1726,10352 1717,10405 1687,10588 1761,10413 1798,10214 1819,10101 1821,10011 1804,9994 Z M 4857,6643 C 4874,6654 4888,6844 4888,7079 L 4888,7495 4984,7495 5080,7495 5078,7153 C 5077,6965 5063,6732 5047,6635 5014,6428 4896,6168 4844,6185 4726,6225 4601,6696 4600,7109 4599,7396 4620,7457 4722,7469 L 4807,7479 4816,7051 C 4822,6785 4837,6631 4857,6643 L 4857,6643 Z M 5457,6607 C 5466,6615 5443,6757 5407,6922 5305,7388 5291,7505 5342,7488 5367,7480 5399,7377 5422,7235 5442,7104 5488,6910 5524,6803 5602,6572 5646,6224 5602,6196 5491,6128 5148,6965 5146,7310 5145,7577 5217,7557 5262,7278 5301,7036 5433,6582 5457,6607 Z M 5515,7463 C 5526,7445 5519,7430 5501,7430 5482,7430 5467,7445 5467,7463 5467,7480 5473,7495 5481,7495 5489,7495 5504,7480 5515,7463 Z M 4535,7104 C 4479,6716 4272,6176 4180,6176 4140,6176 4139,6574 4179,6723 4209,6838 4237,6979 4267,7163 4276,7219 4304,7273 4328,7283 4386,7305 4385,7244 4326,6993 4253,6684 4243,6612 4278,6647 4296,6665 4340,6823 4377,6998 4436,7277 4510,7433 4560,7383 4568,7376 4557,7250 4535,7104 L 4535,7104 Z M 5205,6503 C 5118,6516 5097,6584 5130,6750 L 5153,6868 5193,6755 C 5214,6693 5243,6609 5256,6568 5277,6502 5270,6494 5205,6503 Z M 4627,6399 C 4657,6311 4654,6305 4579,6305 4534,6305 4506,6291 4517,6275 4527,6259 4567,6251 4607,6258 4661,6268 4693,6246 4736,6171 4792,6074 4798,6072 4966,6091 5102,6108 5142,6102 5157,6064 5172,6023 5132,6016 4906,6016 4702,6016 4633,6027 4620,6062 4609,6089 4625,6114 4656,6122 4688,6131 4673,6138 4622,6140 4574,6142 4533,6162 4532,6184 4529,6217 4526,6217 4513,6184 4504,6162 4474,6144 4448,6144 4417,6144 4406,6126 4417,6096 4427,6069 4411,6036 4380,6020 4304,5981 3986,5943 3991,5974 4001,6038 3984,6059 3956,6016 3932,5978 3917,5976 3887,6007 3857,6037 3835,6030 3789,5977 3757,5940 3730,5921 3730,5934 3730,5983 3865,6177 3888,6162 3902,6154 3913,6164 3914,6186 3914,6207 3953,6290 3999,6369 L 4083,6514 4083,6379 C 4084,6202 4135,6072 4198,6086 4226,6091 4247,6107 4245,6121 4243,6135 4270,6182 4304,6226 4339,6270 4408,6418 4458,6555 L 4549,6803 4571,6648 C 4584,6563 4608,6451 4627,6399 L 4627,6399 Z M 5359,6357 C 5387,6302 5432,6231 5459,6200 5505,6148 5501,6144 5404,6144 5326,6144 5303,6156 5317,6191 5330,6225 5298,6243 5192,6259 5039,6282 5032,6290 5078,6410 5122,6526 5290,6494 5359,6357 L 5359,6357 Z M 5137,6347 C 5177,6339 5235,6339 5266,6347 5297,6355 5264,6362 5193,6361 5123,6361 5097,6354 5137,6347 L 5137,6347 Z M 5884,6048 C 5866,6048 5842,6069 5832,6096 5820,6126 5789,6137 5744,6126 5679,6110 5674,6118 5687,6244 L 5699,6380 5761,6302 C 5795,6260 5844,6185 5870,6136 5899,6083 5905,6048 5884,6048 Z M 5159,6212 C 5231,6184 5196,6154 5081,6144 4956,6133 4941,6141 4984,6192 5028,6245 5064,6249 5159,6212 Z M 5502,6004 C 5360,6032 5378,6080 5531,6080 5602,6080 5660,6066 5660,6050 5660,5998 5606,5983 5502,6004 Z M 4971,5862 C 5002,5819 5009,5820 5026,5866 5059,5952 5107,5928 5177,5790 5213,5720 5257,5662 5274,5662 5320,5662 5311,5732 5257,5805 5231,5839 5209,5879 5209,5893 5209,5938 5328,5921 5371,5870 5407,5826 5417,5826 5467,5872 5529,5928 5655,5912 5783,5832 5824,5807 5877,5793 5901,5802 5925,5811 5967,5784 5995,5741 6057,5646 6200,5548 6231,5579 6243,5591 6195,5651 6125,5711 L 5997,5822 6130,5777 C 6294,5721 6391,5667 6501,5570 6548,5528 6599,5501 6614,5511 6649,5533 6763,5449 6748,5412 6728,5361 6547,5432 6441,5533 6337,5631 6265,5666 6331,5586 6359,5552 6356,5532 6321,5503 6262,5454 6170,5482 6047,5585 5953,5664 5952,5664 5917,5599 5868,5507 5708,5513 5578,5612 L 5475,5691 5401,5612 5327,5533 5163,5626 5000,5718 4941,5640 C 4892,5576 4859,5564 4749,5572 4637,5580 4607,5597 4570,5676 L 4525,5770 4473,5659 C 4426,5559 4407,5548 4269,5539 4104,5529 4086,5553 4147,5700 4201,5829 4260,5881 4380,5903 4480,5922 4499,5916 4518,5855 4537,5794 4544,5792 4577,5837 4659,5948 4897,5963 4971,5862 L 4971,5862 Z M 4728,5825 C 4685,5745 4685,5630 4728,5630 4763,5630 4773,5653 4805,5798 4828,5900 4778,5917 4728,5825 L 4728,5825 Z M 4271,5694 C 4288,5694 4325,5730 4354,5774 4407,5855 4376,5890 4318,5815 4258,5737 4241,5694 4271,5694 Z M 5758,5636 C 5807,5652 5638,5855 5575,5855 5541,5855 5536,5840 5559,5798 5605,5712 5716,5621 5758,5636 Z M 3757,5474 C 3636,5491 3647,5599 3785,5732 3896,5840 4070,5900 4157,5861 4171,5855 4144,5780 4097,5694 4008,5530 3892,5455 3757,5474 Z M 3887,5662 C 3916,5662 3966,5758 3947,5777 3941,5783 3919,5759 3897,5725 3876,5690 3871,5662 3887,5662 Z M 3171,5359 C 3086,5339 3080,5343 3098,5411 3109,5452 3118,5495 3119,5508 3119,5534 3384,5694 3426,5694 3441,5694 3436,5677 3415,5655 3394,5634 3376,5595 3376,5569 3376,5536 3410,5552 3481,5618 3598,5727 3763,5855 3787,5855 3795,5855 3783,5829 3760,5798 3578,5557 3381,5410 3171,5359 Z M 5049,5597 C 5049,5580 5033,5565 5014,5565 4996,5565 4989,5580 5000,5597 5011,5615 5027,5630 5034,5630 5042,5630 5049,5615 5049,5597 Z M 5965,5422 C 6124,5398 6276,5377 6303,5377 6404,5375 6940,5212 7169,5114 7508,4969 7901,4706 7938,4599 7962,4533 7957,4500 7918,4462 7873,4416 7856,4422 7737,4524 7453,4767 6879,4976 6142,5104 5358,5240 4558,5223 3537,5047 2920,4940 2292,4686 2002,4425 1833,4273 1769,4275 1769,4433 1769,4552 1877,4678 2115,4833 2556,5122 3246,5335 4019,5419 4258,5446 4497,5472 4550,5478 4756,5501 5690,5464 5965,5422 Z M 5820,5259 C 6301,5215 6970,5023 7384,4811 7571,4715 7658,4708 7605,4794 7542,4895 6904,5120 6370,5228 6015,5300 5202,5375 5241,5331 5257,5314 5351,5303 5820,5259 Z M 2685,4948 C 2663,4925 2679,4923 2733,4938 2900,4987 2939,5033 2782,4996 2746,4987 2703,4965 2685,4948 Z M 2124,4668 C 2104,4631 2093,4601 2100,4601 2107,4601 2232,4673 2380,4761 2675,4939 2665,4969 2358,4827 2249,4777 2144,4705 2124,4668 Z M 7718,4620 C 7718,4575 7810,4521 7839,4550 7847,4559 7846,4588 7835,4615 7811,4677 7718,4681 7718,4620 L 7718,4620 Z M 3039,5399 C 3019,5348 2858,5244 2798,5244 2777,5244 2823,5292 2900,5351 3048,5466 3067,5473 3039,5399 Z M 6914,5353 C 6914,5346 6892,5340 6865,5340 6839,5340 6817,5354 6817,5371 6817,5388 6839,5394 6865,5384 6892,5374 6914,5360 6914,5353 Z M 7770,4351 C 7881,4243 8200,3768 8200,3709 8200,3698 8256,3579 8325,3445 8579,2953 8764,2217 8812,1513 8852,939 8832,793 8702,694 8647,652 8529,590 8441,555 8248,479 7379,303 6987,260 6831,243 6587,215 6444,198 5724,111 3500,76 3007,144 2954,151 2715,182 2476,212 2237,242 1978,286 1900,311 1821,336 1730,356 1698,356 1594,356 1244,514 1151,603 1063,687 1061,698 1061,1045 1062,2162 1280,3182 1671,3896 1790,4114 2195,4473 2486,4619 2606,4680 2723,4729 2745,4729 2767,4729 2802,4746 2823,4767 2844,4788 2886,4809 2918,4813 2949,4817 3054,4844 3151,4872 3445,4958 4076,5058 4486,5084 4898,5109 5277,5099 5820,5048 6645,4970 7416,4695 7770,4351 Z M 5113,4882 C 5122,4873 5266,4856 5434,4845 5788,4821 5932,4804 6287,4744 6542,4700 7068,4544 7204,4471 7260,4441 7272,4442 7261,4475 7242,4533 6671,4718 6277,4794 5972,4853 5076,4921 5113,4882 L 5113,4882 Z M 5547,4600 C 5967,4598 6950,4392 7232,4249 7377,4174 7396,4170 7396,4211 7396,4317 6362,4579 5804,4616 5627,4627 5439,4644 5386,4653 5313,4665 5301,4661 5338,4635 5364,4617 5459,4601 5547,4600 Z M 2573,4471 C 2573,4429 2598,4434 2749,4504 2887,4568 2849,4582 2677,4532 2620,4516 2573,4488 2573,4471 Z M 2456,4256 C 2482,4230 2765,4314 2765,4347 2765,4363 2762,4374 2757,4372 2753,4370 2679,4347 2594,4321 2508,4295 2446,4266 2456,4256 Z M 5483,4352 C 5719,4330 6775,4152 6950,4105 7196,4039 7439,3954 7475,3921 7514,3885 7557,3885 7557,3921 7557,3976 7034,4153 6705,4211 6084,4320 5678,4375 5526,4370 5378,4365 5372,4363 5483,4352 L 5483,4352 Z M 2432,4066 C 2347,4039 2284,4010 2294,4000 2312,3982 2637,4081 2637,4105 2637,4125 2604,4119 2432,4066 Z M 5382,4093 C 5392,4077 5506,4054 5634,4042 6232,3986 6966,3851 7379,3720 7651,3634 7745,3633 7540,3718 7283,3826 6315,4027 5852,4070 5737,4080 5580,4096 5503,4106 5421,4116 5371,4111 5382,4093 L 5382,4093 Z M 2141,3733 C 2157,3733 2257,3761 2363,3795 2470,3829 2520,3857 2476,3856 2432,3855 2343,3838 2278,3817 2162,3781 2082,3732 2141,3733 Z M 5746,3752 C 5935,3739 6314,3694 6589,3650 7033,3580 7199,3542 7613,3415 7670,3397 7718,3395 7718,3409 7718,3438 7113,3616 6849,3664 6612,3708 6186,3757 5852,3781 5702,3791 5547,3807 5509,3815 5470,3822 5431,3817 5421,3801 5412,3786 5558,3764 5746,3752 Z M 2053,3514 C 2091,3502 2412,3598 2412,3622 2412,3647 2334,3633 2173,3579 2087,3550 2032,3521 2053,3514 Z M 5625,3467 C 5952,3496 6968,3351 7522,3197 7788,3123 7913,3117 7730,3187 7563,3251 7292,3312 6801,3396 6285,3485 5467,3539 5467,3485 5467,3467 5533,3459 5625,3467 Z M 2203,3355 C 2086,3325 1985,3280 2000,3265 2008,3257 2093,3278 2189,3312 2349,3369 2357,3394 2203,3355 Z M 5869,3186 C 6116,3171 6440,3137 6589,3111 6737,3084 6875,3069 6895,3077 6915,3084 7105,3052 7317,3006 7528,2959 7745,2916 7798,2909 L 7894,2896 7794,2943 C 7703,2985 7447,3033 6656,3155 6524,3176 6191,3197 5917,3202 L 5418,3212 5869,3186 Z M 1948,3058 C 1932,3058 1927,3049 1937,3038 1962,3013 2315,3097 2315,3129 2315,3142 2312,3152 2307,3151 2303,3150 2227,3129 2138,3104 2050,3080 1964,3059 1948,3058 Z M 5474,2923 C 5443,2911 5542,2900 5694,2898 5845,2897 6207,2868 6497,2833 6788,2798 7099,2761 7188,2751 7277,2741 7458,2705 7589,2671 7803,2616 7885,2610 7842,2654 7805,2691 7164,2801 6624,2863 5983,2936 5563,2958 5474,2923 Z M 2016,2841 C 1914,2814 1838,2784 1847,2775 1871,2751 2217,2835 2238,2869 2259,2903 2246,2901 2016,2841 Z M 1841,2524 C 1859,2505 2219,2602 2219,2625 2219,2645 2154,2637 2026,2602 1853,2555 1822,2542 1841,2524 Z M 5839,2589 C 6405,2561 7173,2483 7364,2434 7607,2372 7903,2338 7862,2376 7823,2412 7121,2527 6656,2573 6208,2618 5446,2652 5469,2626 5480,2615 5646,2598 5839,2589 Z M 1714,2232 C 1728,2218 2223,2343 2246,2366 2289,2409 2022,2369 1872,2311 1779,2274 1708,2239 1714,2232 Z M 5860,2276 C 6077,2267 6464,2237 6721,2209 6977,2181 7259,2151 7348,2142 7436,2133 7593,2110 7697,2091 7868,2059 7948,2066 7905,2109 7896,2118 7629,2153 7313,2188 6996,2222 6599,2266 6431,2284 5958,2336 5467,2356 5467,2322 5467,2306 5644,2285 5860,2276 Z M 1726,1963 C 1696,1930 1702,1927 1753,1947 1788,1961 1907,1995 2018,2022 2128,2050 2219,2084 2219,2098 2219,2132 2208,2130 1967,2062 1855,2030 1746,1985 1726,1963 Z M 5772,2029 C 5931,2016 6349,1988 6699,1965 7050,1943 7463,1899 7616,1868 7881,1813 7946,1810 7902,1854 7868,1888 7440,1959 7147,1980 6992,1991 6800,2005 6721,2012 6641,2019 6330,2031 6029,2039 5656,2048 5574,2045 5772,2029 Z M 5451,1835 C 5438,1814 5549,1803 5762,1803 6210,1803 6967,1747 7476,1676 7867,1621 7945,1618 7905,1658 7861,1702 7092,1779 6142,1835 5484,1874 5475,1874 5451,1835 L 5451,1835 Z M 1672,1699 C 1672,1664 1801,1689 2058,1771 2276,1842 2182,1846 1889,1779 1770,1752 1672,1716 1672,1699 Z M 1873,1510 C 1763,1475 1672,1434 1672,1418 1672,1388 1771,1412 2058,1512 2299,1595 2138,1594 1873,1510 L 1873,1510 Z M 3778,1530 C 2872,1446 2163,1321 1640,1153 1429,1085 1158,925 1158,869 1158,823 1169,828 1352,948 1626,1129 2574,1326 3666,1430 4195,1480 5984,1489 6544,1444 7239,1388 7984,1272 8290,1172 8492,1106 8682,1003 8682,960 8682,933 8693,932 8715,955 8775,1014 8715,1083 8528,1169 8211,1314 7779,1409 7042,1498 6434,1571 4438,1591 3778,1530 L 3778,1530 Z M 2733,1191 C 2848,1178 3044,1167 3167,1168 3392,1168 3392,1168 3232,1193 3143,1207 2948,1217 2798,1216 L 2524,1214 2733,1191 Z M 2122,1070 C 2122,1053 2198,1031 2291,1020 2534,990 3595,994 3613,1024 3622,1038 3387,1051 3091,1052 2795,1053 2456,1065 2338,1077 2208,1091 2122,1088 2122,1070 Z M 2071,865 C 2062,850 2095,837 2145,835 2194,834 2264,826 2299,818 2433,788 3689,765 3706,793 3716,810 3452,826 3092,832 2744,838 2376,853 2274,867 2171,881 2080,880 2071,865 L 2071,865 Z M 2455,614 C 2920,573 3443,558 3666,580 3772,590 3574,607 3167,621 2544,643 2097,682 1955,728 1923,738 1897,732 1897,716 1897,675 2026,652 2455,614 Z M 3746,323 C 3759,344 3678,356 3515,358 3377,359 3242,365 3216,370 3189,374 3015,389 2830,401 2502,423 2101,468 1921,504 1873,514 1833,508 1833,491 1833,409 3698,245 3746,323 Z M 6489,13966 C 6511,13959 6493,14007 6447,14074 6342,14230 6354,14291 6496,14316 L 6608,14336 6470,14340 C 6376,14343 6327,14330 6315,14297 6294,14242 6428,13986 6489,13966 Z M 4679,13573 C 4636,13554 4701,13544 4878,13543 5023,13542 5150,13555 5161,13573 5186,13613 4771,13613 4679,13573 Z M 5209,13269 C 5209,13240 5237,13219 5274,13219 5345,13219 5387,13142 5417,12958 5440,12817 5510,12749 5664,12720 5817,12692 5956,12764 6065,12930 6206,13142 6468,13148 6489,12939 6501,12820 6414,12770 6337,12852 6291,12902 6293,12904 6361,12888 6409,12877 6431,12883 6423,12908 6416,12929 6378,12950 6338,12956 6276,12965 6267,12954 6276,12879 6291,12752 6372,12712 6476,12780 6522,12810 6560,12864 6560,12901 6560,12959 6570,12955 6643,12868 6741,12752 6827,12742 6894,12837 6936,12898 6936,12914 6892,12982 6836,13067 6778,13079 6726,13017 6704,12990 6703,12959 6723,12929 6750,12888 6760,12890 6799,12940 6849,13005 6893,12965 6861,12883 6827,12793 6715,12842 6608,12994 6522,13116 6488,13140 6384,13149 6209,13164 6106,13108 6006,12944 5958,12865 5901,12801 5879,12801 5848,12801 5848,12810 5878,12840 5970,12931 5893,13236 5772,13259 5684,13276 5658,13262 5603,13163 5550,13068 5553,13011 5613,12960 5654,12926 5672,12928 5715,12972 5745,13001 5757,13035 5744,13049 5731,13062 5708,13053 5694,13030 5674,12997 5662,12996 5644,13025 5610,13081 5672,13130 5760,13117 5906,13097 5856,12769 5708,12769 5623,12769 5466,12874 5452,12940 5420,13096 5415,13219 5440,13219 5455,13219 5467,13182 5467,13137 5467,13040 5551,12865 5598,12865 5616,12865 5608,12897 5581,12937 5553,12976 5531,13063 5531,13131 5531,13260 5524,13266 5330,13298 5234,13314 5209,13308 5209,13269 L 5209,13269 Z M 5796,13198 C 5774,13189 5738,13189 5716,13198 5694,13207 5712,13214 5756,13214 5800,13214 5818,13207 5796,13198 Z M 4454,13240 C 4302,13170 4222,13057 4182,12860 4134,12626 4183,12499 4371,12368 4545,12248 4820,12220 5032,12301 5209,12368 5370,12571 5370,12727 5370,12876 5253,13110 5136,13193 5013,13281 4603,13309 4454,13240 Z M 5046,13163 C 5200,13084 5280,12961 5298,12774 5313,12622 5306,12606 5184,12475 5057,12339 5050,12336 4818,12326 4540,12313 4399,12370 4285,12540 4142,12755 4222,13054 4451,13158 4620,13235 4901,13237 5046,13163 L 5046,13163 Z M 4546,13074 C 4535,13048 4500,13026 4466,13026 4433,13026 4405,13010 4405,12989 4405,12969 4380,12934 4349,12910 4300,12873 4312,12867 4446,12866 L 4598,12865 4598,12994 C 4598,13127 4578,13158 4546,13074 L 4546,13074 Z M 5057,12872 C 5148,12866 5209,12875 5209,12896 5209,12914 5180,12930 5143,12930 5107,12930 5084,12941 5093,12955 5119,12998 5069,13047 4974,13071 4887,13092 4884,13088 4894,12987 4903,12885 4910,12881 5057,12872 Z M 5033,12936 C 5023,12926 4997,12936 4976,12958 4944,12990 4948,12993 4994,12976 5025,12964 5043,12946 5033,12936 Z M 4925,12583 C 4879,12568 4875,12427 4920,12399 4938,12388 4952,12415 4952,12461 4952,12516 4970,12544 5004,12544 5046,12544 5049,12534 5019,12498 4991,12465 4991,12447 5017,12431 5038,12418 5060,12438 5071,12478 5082,12520 5107,12541 5133,12530 5158,12521 5177,12534 5177,12562 5177,12596 5147,12608 5070,12603 5011,12599 4946,12590 4925,12583 L 4925,12583 Z M 4478,12458 C 4474,12443 4507,12422 4551,12410 4622,12391 4631,12398 4631,12482 4631,12574 4627,12576 4462,12573 4294,12571 4293,12570 4389,12528 4442,12505 4482,12473 4478,12458 Z M 5981,13205 C 5981,13179 5994,13151 6010,13141 6045,13119 6117,13201 6088,13230 6050,13268 5981,13252 5981,13205 Z M 4031,13190 L 4154,13171 4075,13097 C 4031,13056 3971,12967 3940,12899 3880,12766 3768,12693 3695,12739 3621,12786 3591,12773 3636,12713 3672,12665 3672,12663 3635,12695 3565,12757 3540,13010 3597,13067 3639,13109 3791,13107 3833,13064 3884,13014 3838,12930 3760,12930 3712,12930 3697,12944 3710,12978 3721,13007 3710,13026 3681,13026 3655,13026 3634,13006 3634,12982 3634,12909 3718,12861 3807,12884 3872,12900 3891,12925 3891,12992 3891,13109 3771,13165 3581,13136 3433,13114 3390,13082 3427,13023 3442,12998 3457,13000 3476,13031 3495,13060 3504,13042 3505,12972 3505,12915 3489,12860 3470,12848 3425,12819 3547,12689 3666,12640 3735,12611 3773,12612 3828,12641 3916,12688 3954,12642 3955,12485 3955,12342 3904,12255 3817,12252 3778,12250 3764,12242 3787,12233 3809,12224 3819,12203 3809,12187 3778,12137 3617,12155 3459,12225 3314,12289 3302,12289 3193,12237 3065,12177 2916,12192 2824,12276 2753,12340 2748,12457 2813,12511 2872,12560 2958,12532 2958,12464 2958,12405 2905,12399 2885,12455 2877,12477 2860,12486 2847,12474 2810,12439 2859,12383 2927,12383 2967,12383 2982,12367 2971,12338 2962,12313 2969,12283 2988,12272 3007,12260 3023,12269 3023,12293 3024,12323 3032,12322 3055,12286 3081,12245 3086,12247 3087,12296 3087,12327 3065,12361 3038,12372 3006,12384 2996,12413 3009,12454 3022,12496 3006,12539 2959,12582 L 2889,12647 2811,12574 C 2749,12515 2733,12511 2733,12552 2733,12616 2584,12737 2504,12737 2422,12737 2428,12687 2511,12681 2612,12673 2665,12614 2687,12484 2721,12283 2735,12255 2830,12206 2938,12150 3097,12144 3186,12191 3256,12229 3263,12213 3215,12124 3191,12080 3192,12042 3216,11997 3251,11930 3358,11910 3392,11963 3402,11980 3430,11987 3455,11977 3517,11954 3550,12023 3504,12079 3450,12144 3376,12137 3376,12067 3376,11985 3342,11959 3291,12001 3231,12051 3237,12149 3303,12186 3342,12207 3393,12199 3479,12155 3660,12062 3752,12076 3891,12215 3989,12312 4019,12327 4042,12291 4058,12265 4113,12242 4166,12238 4218,12234 4275,12225 4293,12218 4311,12212 4329,12221 4335,12238 4340,12256 4318,12276 4287,12282 4255,12288 4217,12314 4203,12338 4189,12363 4162,12383 4143,12383 4122,12383 4126,12362 4152,12329 4190,12284 4190,12278 4151,12291 4088,12312 3987,12509 3987,12612 3987,12658 4010,12716 4038,12739 4075,12769 4083,12811 4068,12891 4052,12978 4062,13017 4117,13076 4207,13171 4175,13220 4026,13215 L 3907,13210 4031,13190 4031,13190 Z M 3539,12769 C 3520,12769 3505,12783 3505,12801 3505,12819 3511,12833 3519,12833 3527,12833 3542,12819 3553,12801 3564,12783 3558,12769 3539,12769 Z M 3080,13005 C 3015,12978 2952,12930 2942,12897 2914,12809 2840,12761 2767,12784 2701,12805 2673,12897 2733,12897 2751,12897 2765,12880 2765,12859 2765,12829 2774,12829 2804,12859 2855,12909 2796,12972 2713,12956 2674,12949 2653,12917 2653,12865 2653,12770 2798,12684 2881,12730 2919,12751 2954,12738 3009,12684 3050,12642 3098,12608 3115,12608 3176,12608 3242,12704 3225,12768 3213,12814 3224,12833 3260,12833 3289,12833 3312,12848 3312,12865 3312,12883 3298,12897 3280,12897 3225,12897 3199,12882 3208,12855 3213,12840 3188,12838 3152,12849 3115,12861 3087,12855 3087,12835 3087,12816 3109,12801 3135,12801 3184,12801 3201,12733 3163,12695 3117,12649 3023,12742 3023,12833 3023,12915 3039,12932 3154,12966 3259,12998 3299,12998 3350,12966 3423,12920 3464,12935 3401,12985 3324,13046 3200,13053 3080,13005 L 3080,13005 Z M 6991,12801 C 7039,12801 7082,12879 7051,12910 7018,12943 6986,12932 6965,12879 6938,12807 6940,12801 6991,12801 Z M 6126,12865 C 6115,12848 6120,12833 6138,12833 6156,12833 6179,12848 6190,12865 6201,12883 6196,12897 6178,12897 6160,12897 6137,12883 6126,12865 Z M 2522,12797 C 2532,12813 2518,12835 2492,12845 2466,12855 2444,12850 2444,12834 2444,12790 2501,12763 2522,12797 Z M 7111,12823 C 7082,12788 7084,12768 7122,12737 7167,12700 7185,12714 7175,12777 7173,12790 7186,12801 7205,12801 7224,12801 7235,12776 7228,12745 7219,12698 7187,12690 7041,12697 6944,12701 6851,12694 6832,12681 6786,12646 6676,12476 6652,12399 6632,12339 6630,12340 6627,12407 6625,12467 6606,12479 6514,12479 6453,12479 6395,12466 6385,12451 6358,12407 6480,12273 6523,12299 6572,12330 6570,12388 6520,12377 6471,12365 6445,12425 6491,12440 6509,12446 6548,12414 6578,12369 6621,12302 6624,12277 6592,12238 6529,12162 6460,12181 6346,12306 6249,12412 6244,12428 6285,12488 6325,12545 6325,12565 6285,12643 6260,12692 6211,12741 6176,12752 6106,12774 5981,12710 5981,12651 5981,12600 6072,12512 6125,12512 6172,12512 6219,12607 6186,12637 6175,12648 6159,12638 6151,12616 6128,12553 6078,12569 6078,12640 6078,12681 6099,12705 6135,12705 6208,12705 6271,12644 6271,12573 6271,12506 5987,12319 5885,12319 5812,12319 5812,12320 5869,12383 5917,12436 5921,12461 5890,12528 5851,12615 5753,12634 5696,12565 5651,12511 5727,12393 5785,12429 5813,12447 5814,12464 5788,12495 5764,12525 5763,12544 5787,12559 5829,12585 5866,12497 5841,12431 5830,12403 5782,12383 5723,12383 5636,12383 5616,12401 5560,12526 5525,12605 5481,12679 5462,12691 5439,12706 5438,12694 5460,12652 5477,12619 5501,12532 5513,12460 5531,12352 5525,12323 5481,12306 5442,12291 5432,12299 5446,12334 5470,12397 5420,12396 5321,12331 5225,12268 5219,12222 5306,12222 5341,12222 5370,12235 5370,12250 5370,12265 5405,12271 5447,12263 5499,12253 5538,12269 5569,12314 5615,12380 5616,12380 5718,12318 5796,12270 5853,12260 5964,12275 6080,12291 6112,12285 6129,12243 6155,12173 6119,12084 6076,12110 6053,12125 6055,12147 6083,12180 6117,12222 6114,12228 6060,12217 5984,12203 5978,12129 6049,12084 6176,12004 6269,12187 6158,12298 6131,12325 6123,12355 6139,12365 6185,12394 6262,12352 6317,12269 6344,12227 6395,12177 6429,12159 6518,12112 6653,12180 6678,12284 6729,12499 6878,12657 6956,12579 6981,12553 6979,12533 6948,12504 6913,12471 6909,12471 6927,12504 6941,12528 6930,12544 6899,12544 6846,12544 6830,12463 6879,12433 6895,12423 6931,12424 6959,12435 7019,12458 7028,12596 6970,12617 6948,12625 6938,12641 6949,12652 6959,12663 7013,12657 7070,12637 7216,12586 7274,12618 7261,12744 7250,12859 7174,12898 7111,12823 L 7111,12823 Z M 6399,12568 C 6399,12560 6450,12555 6513,12556 6622,12560 6687,12611 6688,12696 6689,12761 6633,12743 6615,12672 6606,12637 6572,12608 6541,12608 6490,12608 6492,12616 6555,12674 6594,12711 6617,12754 6607,12771 6583,12809 6591,12814 6488,12690 6439,12631 6399,12576 6399,12568 Z M 2243,12717 C 2162,12674 2122,12607 2179,12609 2218,12610 2364,12731 2347,12748 2338,12756 2292,12742 2243,12717 Z M 3439,12655 C 3492,12688 3478,12746 3423,12724 3394,12713 3381,12719 3393,12737 3404,12755 3390,12769 3362,12769 3335,12769 3312,12756 3312,12741 3312,12694 3403,12633 3439,12655 Z M 2368,12457 C 2433,12432 2521,12484 2535,12555 2547,12616 2460,12628 2425,12571 2411,12548 2416,12543 2439,12557 2459,12569 2476,12564 2476,12546 2476,12493 2380,12505 2359,12560 2349,12587 2358,12630 2380,12657 2427,12714 2409,12721 2354,12666 2298,12610 2307,12481 2368,12457 Z M 5594,12560 C 5636,12534 5672,12608 5635,12645 5615,12666 5597,12660 5585,12627 5574,12600 5579,12570 5594,12560 Z M 7332,12631 C 7332,12564 7396,12518 7463,12535 7534,12554 7540,12580 7486,12634 7435,12685 7332,12683 7332,12631 L 7332,12631 Z M 3179,12326 C 3211,12315 3214,12326 3190,12371 3137,12473 3198,12576 3313,12576 3403,12576 3412,12567 3403,12487 3392,12391 3293,12360 3300,12455 3303,12486 3292,12503 3276,12493 3261,12484 3248,12447 3248,12411 3248,12360 3266,12349 3333,12357 3523,12379 3511,12583 3319,12602 3242,12610 3208,12594 3167,12531 3108,12441 3113,12347 3179,12326 Z M 3785,12542 C 3799,12541 3774,12524 3730,12504 L 3650,12468 3730,12454 C 3805,12440 3806,12437 3746,12415 3686,12392 3686,12388 3740,12366 3815,12335 3834,12358 3844,12495 3853,12603 3820,12644 3778,12576 3767,12558 3770,12543 3785,12542 Z M 4072,12504 C 4102,12446 4132,12416 4139,12437 4156,12486 4092,12608 4050,12608 4032,12608 4042,12561 4072,12504 Z M 2074,12447 C 2089,12423 2112,12431 2144,12469 2170,12501 2182,12510 2171,12487 2159,12463 2172,12447 2203,12447 2271,12447 2253,12555 2183,12569 2155,12574 2114,12557 2092,12530 2070,12504 2062,12466 2074,12447 Z M 3537,12544 C 3537,12526 3559,12512 3585,12512 3612,12512 3634,12526 3634,12544 3634,12561 3612,12576 3585,12576 3559,12576 3537,12561 3537,12544 Z M 7090,12512 C 7101,12494 7125,12479 7143,12479 7160,12479 7166,12494 7155,12512 7144,12529 7120,12544 7103,12544 7085,12544 7080,12529 7090,12512 Z M 5949,12447 C 5949,12430 5963,12415 5979,12415 5996,12415 6018,12430 6029,12447 6040,12465 6027,12479 5999,12479 5971,12479 5949,12465 5949,12447 Z M 2540,12422 C 2540,12405 2564,12371 2592,12348 2637,12310 2643,12313 2632,12365 2620,12428 2540,12477 2540,12422 Z M 3485,12368 C 3464,12314 3494,12254 3543,12254 3561,12254 3568,12277 3557,12304 3546,12333 3551,12346 3570,12334 3587,12324 3602,12329 3602,12345 3602,12398 3504,12417 3485,12368 Z M 6818,12335 C 6836,12346 6842,12369 6832,12385 6804,12430 6785,12421 6785,12365 6785,12337 6800,12324 6818,12335 Z M 3634,12359 C 3634,12341 3655,12308 3682,12286 3709,12264 3730,12261 3730,12279 3730,12296 3708,12329 3682,12351 3655,12373 3634,12377 3634,12359 Z M 5677,12225 C 5649,12179 5883,12111 5925,12153 5962,12190 5945,12200 5782,12236 5735,12246 5687,12241 5677,12225 Z M 3955,12126 C 3973,12126 3987,12140 3987,12158 3987,12176 3973,12190 3955,12190 3938,12190 3923,12176 3923,12158 3923,12140 3938,12126 3955,12126 Z M 6224,11969 C 6248,11944 6335,12059 6335,12116 6335,12189 6270,12161 6237,12073 6219,12026 6213,11979 6224,11969 Z M 3009,12065 C 2987,12030 3069,11958 3098,11987 3110,11998 3119,12027 3119,12051 3119,12099 3036,12109 3009,12065 Z M 1351,12011 C 1351,12001 1394,11903 1446,11794 1574,11529 1782,10851 1866,10428 1921,10152 1938,10195 1895,10502 1828,10985 1473,12029 1376,12029 1362,12029 1351,12021 1351,12011 Z M 3076,11911 C 3065,11899 3055,11869 3055,11843 3055,11805 3064,11804 3103,11836 3144,11870 3151,11863 3151,11794 3151,11748 3126,11697 3095,11679 3065,11662 3051,11636 3066,11622 3099,11588 3216,11728 3216,11801 3216,11890 3126,11961 3076,11911 Z M 3266,11871 C 3255,11854 3260,11832 3277,11822 3294,11812 3316,11817 3326,11833 3337,11850 3332,11872 3315,11883 3298,11893 3276,11888 3266,11871 Z M 2450,11432 C 2375,11426 2237,11386 2145,11343 2053,11300 1952,11256 1921,11246 1890,11236 1865,11212 1865,11194 1865,11150 1878,11152 2019,11212 2202,11291 2317,11322 2488,11340 2654,11357 2830,11431 2830,11483 2830,11523 2772,11520 2669,11476 2625,11457 2526,11437 2450,11432 Z M 3773,10660 C 3682,10616 3588,10557 3565,10528 3541,10500 3602,10522 3701,10577 3899,10689 3999,10703 4073,10630 4099,10603 4132,10588 4145,10596 4159,10605 4170,10592 4170,10567 4170,10534 4151,10531 4090,10554 4046,10570 4004,10578 3997,10570 3981,10554 4152,10499 4297,10474 4353,10464 4407,10465 4417,10476 4447,10506 4275,10585 4233,10561 4213,10549 4207,10551 4219,10565 4244,10593 4039,10744 3978,10742 3957,10741 3865,10704 3773,10660 L 3773,10660 Z M 3357,10148 C 3353,10121 3364,10108 3381,10119 3399,10130 3405,10146 3395,10156 3375,10176 3456,10239 3594,10311 3642,10336 3660,10356 3634,10355 3607,10354 3536,10319 3475,10276 3414,10233 3361,10176 3357,10148 Z M 3216,10097 C 3146,10040 3145,10036 3206,10066 3245,10084 3285,10114 3296,10132 3325,10179 3306,10170 3216,10097 Z M 3457,9706 C 3427,9674 3487,9706 3760,9869 3848,9922 3883,9928 3936,9900 4070,9828 4373,9751 4393,9784 4404,9801 4440,9809 4473,9800 4606,9765 4522,9831 4326,9915 4054,10031 3982,10025 4229,9907 4335,9856 4397,9813 4366,9812 4285,9809 3955,9939 3955,9973 3955,10021 3919,10007 3698,9870 3583,9799 3474,9725 3457,9706 Z M 2450,9446 C 2311,9181 2194,9059 2013,8990 1930,8958 1854,8918 1843,8901 1833,8883 1844,8877 1869,8887 1893,8897 1967,8923 2032,8944 2182,8993 2346,9162 2482,9408 2566,9558 2621,9617 2732,9674 2815,9715 2849,9745 2812,9744 2778,9743 2706,9720 2652,9693 2588,9661 2519,9577 2450,9446 Z M 3328,9583 C 3240,9550 3142,9532 3111,9541 3080,9550 3055,9542 3055,9523 3055,9504 3081,9489 3113,9489 3187,9489 3478,9584 3520,9622 3562,9660 3518,9651 3328,9583 Z M 4028,9241 C 4059,9233 4103,9234 4125,9242 4146,9251 4121,9258 4068,9257 4015,9257 3997,9249 4028,9241 L 4028,9241 Z M 4325,9185 C 4520,9128 4522,9127 4484,9165 4467,9182 4389,9204 4309,9214 L 4164,9232 4325,9185 Z M 4156,9083 C 4317,9024 4388,9012 4430,9036 4478,9064 4474,9069 4401,9070 4355,9070 4256,9092 4180,9119 4105,9145 4020,9166 3991,9165 3963,9164 4037,9127 4156,9083 Z M 6264,8873 C 6257,8761 6238,8640 6223,8604 6204,8559 6221,8567 6285,8634 6362,8715 6372,8747 6358,8870 6332,9104 6278,9106 6264,8873 L 6264,8873 Z M 4041,8435 C 4022,8406 4561,8283 4589,8310 4598,8320 4528,8349 4433,8375 4166,8449 4059,8466 4041,8435 Z M 3859,8335 C 3859,8319 3927,8297 4012,8285 4096,8274 4208,8258 4261,8249 4349,8236 4346,8240 4229,8297 4096,8360 3859,8385 3859,8335 Z M 6250,7977 C 6241,7893 6206,7802 6166,7760 6129,7721 6108,7679 6119,7668 6129,7657 6175,7688 6220,7737 6285,7807 6303,7859 6303,7982 6303,8068 6295,8138 6287,8138 6278,8138 6270,8134 6268,8130 6267,8126 6259,8057 6250,7977 Z M 4301,7956 C 4235,7929 4180,7893 4180,7877 4180,7839 4183,7839 4353,7914 4579,8014 4532,8052 4301,7956 Z M 82,7690 C 28,7603 579,6980 809,6869 L 916,6817 820,6898 724,6980 949,6885 C 1072,6832 1203,6789 1238,6789 1273,6790 1228,6816 1138,6849 789,6975 395,7280 198,7578 145,7658 93,7708 82,7690 Z M 5885,7088 C 5885,7064 5906,7045 5933,7045 5959,7045 5981,7073 5981,7107 5981,7189 6023,7212 6254,7257 6399,7286 6419,7296 6335,7296 6273,7296 6172,7282 6110,7264 5982,7228 5885,7152 5885,7088 Z M 5672,6829 C 5682,6819 5773,6852 5875,6903 5978,6953 6119,7012 6190,7033 6261,7053 6290,7071 6254,7072 6219,7073 6139,7055 6078,7031 5861,6949 5654,6846 5672,6829 Z M 1599,6740 C 1452,6725 1208,6580 949,6354 687,6125 302,5852 136,5777 61,5744 0,5697 0,5673 0,5649 10,5630 22,5630 76,5630 518,5912 724,6077 1011,6308 1141,6400 1310,6492 1510,6601 1868,6715 2080,6739 2354,6769 2444,6789 2444,6821 2444,6861 2041,6843 1868,6794 1787,6771 1666,6747 1599,6740 Z"/>
        </g>
       </g>
      </g>
     </g>
    </g>
   </g>
  </g>
 </g>
</svg>