<?xml version="1.0" encoding="UTF-8"?>
<!DOCTYPE svg PUBLIC "-//W3C//DTD SVG 1.1//EN" "http://www.w3.org/Graphics/SVG/1.1/DTD/svg11.dtd">
<svg version="1.2" width="70.45mm" height="147.59mm" viewBox="0 0 7045 14759" preserveAspectRatio="xMidYMid" fill-rule="evenodd" stroke-width="28.222" stroke-linejoin="round" xmlns="http://www.w3.org/2000/svg" xmlns:ooo="http://xml.openoffice.org/svg/export" xmlns:xlink="http://www.w3.org/1999/xlink" xmlns:presentation="http://sun.com/xmlns/staroffice/presentation" xmlns:smil="http://www.w3.org/2001/SMIL20/" xmlns:anim="urn:oasis:names:tc:opendocument:xmlns:animation:1.0" xml:space="preserve">
 <defs class="ClipPathGroup">
  <clipPath id="presentation_clip_path" clipPathUnits="userSpaceOnUse">
   <rect x="0" y="0" width="7045" height="14759"/>
  </clipPath>
  <clipPath id="presentation_clip_path_shrink" clipPathUnits="userSpaceOnUse">
   <rect x="7" y="14" width="7031" height="14730"/>
  </clipPath>
 </defs>
 <defs class="TextShapeIndex">
  <g ooo:slide="id1" ooo:id-list="id3 id4 id5 id6 id7 id8 id9 id10 id11 id12 id13 id14 id15 id16 id17 id18 id19 id20 id21 id22 id23 id24 id25 id26 id27 id28 id29 id30 id31 id32 id33 id34 id35 id36 id37 id38 id39 id40 id41 id42 id43 id44 id45 id46 id47 id48 id49 id50 id51 id52 id53 id54 id55 id56 id57 id58 id59 id60 id61 id62 id63 id64 id65 id66 id67 id68 id69 id70 id71 id72 id73 id74 id75 id76 id77 id78 id79 id80 id81 id82 id83 id84 id85 id86 id87 id88 id89 id90 id91 id92 id93 id94 id95 id96 id97 id98 id99 id100 id101 id102 id103 id104 id105 id106 id107 id108 id109 id110 id111 id112 id113 id114 id115 id116 id117 id118 id119 id120 id121 id122 id123 id124 id125 id126 id127 id128 id129 id130 id131 id132 id133 id134 id135 id136"/>
 </defs>
 <defs class="EmbeddedBulletChars">
  <g id="bullet-char-template-57356" transform="scale(0.00048828125,-0.00048828125)">
   <path d="M 580,1141 L 1163,571 580,0 -4,571 580,1141 Z"/>
  </g>
  <g id="bullet-char-template-57354" transform="scale(0.00048828125,-0.00048828125)">
   <path d="M 8,1128 L 1137,1128 1137,0 8,0 8,1128 Z"/>
  </g>
  <g id="bullet-char-template-10146" transform="scale(0.00048828125,-0.00048828125)">
   <path d="M 174,0 L 602,739 174,1481 1456,739 174,0 Z M 1358,739 L 309,1346 659,739 1358,739 Z"/>
  </g>
  <g id="bullet-char-template-10132" transform="scale(0.00048828125,-0.00048828125)">
   <path d="M 2015,739 L 1276,0 717,0 1260,543 174,543 174,936 1260,936 717,1481 1274,1481 2015,739 Z"/>
  </g>
  <g id="bullet-char-template-10007" transform="scale(0.00048828125,-0.00048828125)">
   <path d="M 0,-2 C -7,14 -16,27 -25,37 L 356,567 C 262,823 215,952 215,954 215,979 228,992 255,992 264,992 276,990 289,987 310,991 331,999 354,1012 L 381,999 492,748 772,1049 836,1024 860,1049 C 881,1039 901,1025 922,1006 886,937 835,863 770,784 769,783 710,716 594,584 L 774,223 C 774,196 753,168 711,139 L 727,119 C 717,90 699,76 672,76 641,76 570,178 457,381 L 164,-76 C 142,-110 111,-127 72,-127 30,-127 9,-110 8,-76 1,-67 -2,-52 -2,-32 -2,-23 -1,-13 0,-2 Z"/>
  </g>
  <g id="bullet-char-template-10004" transform="scale(0.00048828125,-0.00048828125)">
   <path d="M 285,-33 C 182,-33 111,30 74,156 52,228 41,333 41,471 41,549 55,616 82,672 116,743 169,778 240,778 293,778 328,747 346,684 L 369,508 C 377,444 397,411 428,410 L 1163,1116 C 1174,1127 1196,1133 1229,1133 1271,1133 1292,1118 1292,1087 L 1292,965 C 1292,929 1282,901 1262,881 L 442,47 C 390,-6 338,-33 285,-33 Z"/>
  </g>
  <g id="bullet-char-template-9679" transform="scale(0.00048828125,-0.00048828125)">
   <path d="M 813,0 C 632,0 489,54 383,161 276,268 223,411 223,592 223,773 276,916 383,1023 489,1130 632,1184 813,1184 992,1184 1136,1130 1245,1023 1353,916 1407,772 1407,592 1407,412 1353,268 1245,161 1136,54 992,0 813,0 Z"/>
  </g>
  <g id="bullet-char-template-8226" transform="scale(0.00048828125,-0.00048828125)">
   <path d="M 346,457 C 273,457 209,483 155,535 101,586 74,649 74,723 74,796 101,859 155,911 209,963 273,989 346,989 419,989 480,963 531,910 582,859 608,796 608,723 608,648 583,586 532,535 482,483 420,457 346,457 Z"/>
  </g>
  <g id="bullet-char-template-8211" transform="scale(0.00048828125,-0.00048828125)">
   <path d="M -4,459 L 1135,459 1135,606 -4,606 -4,459 Z"/>
  </g>
  <g id="bullet-char-template-61548" transform="scale(0.00048828125,-0.00048828125)">
   <path d="M 173,740 C 173,903 231,1043 346,1159 462,1274 601,1332 765,1332 928,1332 1067,1274 1183,1159 1299,1043 1357,903 1357,740 1357,577 1299,437 1183,322 1067,206 928,148 765,148 601,148 462,206 346,322 231,437 173,577 173,740 Z"/>
  </g>
 </defs>
 <g>
  <g id="id2" class="Master_Slide">
   <g id="bg-id2" class="Background"/>
   <g id="bo-id2" class="BackgroundObjects"/>
  </g>
 </g>
 <g class="SlideGroup">
  <g>
   <g id="container-id1">
    <g id="id1" class="Slide" clip-path="url(#presentation_clip_path)">
     <g class="Page">
      <g class="com.sun.star.drawing.PolyPolygonShape">
       <g id="id3">
        <rect class="BoundingBox" stroke="none" fill="none" x="2975" y="32" width="3241" height="3631"/>
        <path fill="rgb(187,227,61)" stroke="none" d="M 2975,3434 L 2991,2748 3175,1992 3234,1706 3277,1306 3342,1004 3439,696 3628,324 4001,59 4600,32 5048,286 5340,696 5599,1350 5783,1868 5935,2359 6059,2791 6161,3331 6194,3515 6215,3617 5935,3661 5767,3277 5643,2861 5546,2640 5368,2462 5227,2365 5119,2267 4995,2262 4882,2170 4660,729 4558,529 4466,443 4315,405 4093,405 4061,372 3991,399 3904,443 3785,512 3749,570 3682,687 3607,824 3543,1172 3551,1498 3654,1813 3788,2066 3957,2172 4108,2172 4144,2278 4033,2331 3860,2398 3668,2420 3559,2462 3384,2629 3180,3022 3139,3147 3024,3398 3024,3400 2975,3434 Z"/>
       </g>
      </g>
      <g class="com.sun.star.drawing.ClosedBezierShape">
       <g id="id4">
        <rect class="BoundingBox" stroke="none" fill="none" x="18" y="0" width="7021" height="14740"/>
        <path fill="rgb(0,0,0)" stroke="none" d="M 3315,14734 C 3262,14715 3234,14425 3275,14318 3307,14233 2845,14148 2720,14215 2317,14431 1341,14439 932,14231 876,14202 830,14184 830,14189 829,14204 393,13830 319,13749 195,13616 57,13341 24,13162 -5,13007 103,12519 202,12353 327,12143 750,11678 885,11602 958,11561 1026,11512 1037,11492 1062,11447 1462,11295 1615,11272 L 1730,11255 1772,11065 C 1796,10961 1858,10674 1912,10429 1965,10183 2048,9826 2097,9635 2146,9444 2202,9218 2222,9132 2241,9046 2289,8873 2328,8748 2368,8622 2430,8402 2467,8259 2504,8116 2567,7899 2607,7777 2647,7655 2724,7398 2780,7207 3057,6245 3273,5652 3468,5321 3538,5202 3595,5100 3595,5095 3595,5089 3623,5027 3657,4956 3701,4865 3711,4820 3693,4798 3627,4718 3677,4453 3759,4445 L 3837,4437 3757,4283 C 3713,4199 3658,4066 3636,3988 3567,3750 3530,3780 3446,4142 3239,5039 3097,5215 2678,5094 2421,5020 2413,5021 2367,5113 2241,5362 2113,5406 1888,5279 1460,5038 1399,4948 1513,4725 L 1563,4628 1467,4527 C 1353,4408 1339,4377 1313,4167 1283,3925 1268,3869 1196,3728 1124,3588 1141,3500 1227,3571 1275,3611 1276,3571 1229,3508 1183,3448 1181,3382 1223,3356 1241,3345 1263,3316 1272,3293 1293,3236 1328,3238 1388,3298 1415,3325 1443,3336 1452,3323 1518,3215 1698,3526 1799,3923 1831,4046 1860,4148 1864,4151 1890,4165 2074,4233 2256,4296 2373,4336 2497,4397 2535,4433 2619,4513 2607,4528 2702,4217 2745,4073 2818,3856 2864,3733 2940,3526 2947,3482 2959,3138 2966,2920 2988,2698 3011,2604 3033,2516 3085,2306 3127,2138 3169,1970 3211,1730 3221,1605 3285,828 3583,163 3905,77 4049,39 4171,13 4279,0 L 4546,0 C 4744,29 4903,134 5102,330 5402,625 5409,637 5547,1079 5717,1622 5786,1832 5828,1924 5941,2170 6042,2499 6077,2728 6093,2831 6132,3026 6165,3162 6227,3421 6242,3585 6201,3560 6188,3552 6170,3504 6162,3453 6154,3402 6132,3294 6112,3212 6092,3130 6052,2946 6024,2803 5967,2514 5937,2444 5960,2654 5968,2733 5966,2775 5953,2753 5942,2733 5919,2600 5903,2459 5887,2318 5864,2179 5851,2149 5835,2111 5832,2132 5842,2220 5858,2371 5817,2322 5793,2161 5784,2101 5743,1933 5703,1789 5336,470 4888,-56 4254,85 4026,136 3999,163 4187,154 4264,150 4377,158 4439,172 4538,194 4530,195 4363,184 4145,170 3869,219 3772,290 3736,316 3689,344 3666,353 3644,361 3606,422 3582,488 3557,553 3524,624 3507,644 3440,728 3392,856 3359,1043 3340,1152 3317,1253 3308,1268 3299,1283 3282,1464 3270,1670 3258,1877 3232,2107 3212,2182 3177,2316 3176,2317 3182,2215 3191,2043 3157,2119 3138,2312 3109,2623 3096,2682 3059,2668 3033,2658 3025,2689 3024,2809 3024,2894 3018,3064 3011,3187 2999,3404 3000,3407 3035,3313 3055,3260 3080,3210 3092,3202 3103,3193 3145,3086 3186,2964 3287,2662 3534,2396 3719,2389 3890,2383 4067,2330 4066,2283 4066,2214 4030,2185 3948,2187 3812,2191 3728,2071 3565,1638 3344,1054 3681,347 4179,347 4754,347 5023,895 4917,1847 4883,2158 4934,2257 5105,2208 5192,2183 5480,2204 5480,2235 5480,2247 5400,2257 5301,2257 L 5121,2257 5256,2325 C 5532,2464 5694,2696 5769,3063 5789,3158 5832,3321 5867,3425 L 5929,3613 6083,3604 C 6335,3588 6432,3612 6565,3723 6630,3778 6722,3843 6770,3868 6933,3953 6955,3997 6950,4224 6941,4576 6919,4705 6849,4805 6814,4856 6744,4978 6695,5076 L 6606,5253 6678,5473 C 6755,5708 6811,5966 6830,6180 6837,6252 6859,6524 6880,6783 6901,7042 6924,7321 6931,7402 6938,7484 6950,8120 6957,8816 6965,9512 6982,10343 6995,10664 7063,12350 7074,12230 6844,12380 L 6721,12461 6716,12673 C 6714,12789 6714,12924 6718,12974 6726,13103 6642,13192 6486,13221 6346,13247 6360,13237 6339,13323 L 6323,13391 6578,13398 C 6822,13404 6833,13407 6840,13462 6853,13553 6783,13636 6677,13653 6626,13661 6495,13694 6386,13726 6239,13769 6098,13788 5842,13799 5605,13809 5484,13825 5458,13848 5384,13911 5264,13938 5231,13899 5189,13848 5172,13855 5142,13934 5106,14030 4996,14080 4753,14112 4642,14126 4425,14166 4272,14199 4119,14233 3967,14260 3934,14260 3901,14260 3867,14278 3859,14298 3783,14496 3434,14775 3315,14734 Z"/>
       </g>
      </g>
      <g class="com.sun.star.drawing.ClosedBezierShape">
       <g id="id5">
        <rect class="BoundingBox" stroke="none" fill="none" x="3868" y="2284" width="1328" height="988"/>
        <path fill="rgb(255,191,0)" stroke="none" d="M 4741,2489 L 4749,2483 C 4773,2475 4783,2470 4778,2466 L 4834,2431 C 4861,2422 4895,2398 4930,2363 5021,2272 5071,2263 5154,2321 5197,2351 5204,2368 5183,2393 5166,2413 5162,2462 5172,2515 5183,2572 5178,2617 5158,2640 5141,2660 5133,2705 5139,2739 5146,2774 5137,2813 5118,2829 5099,2844 5084,2879 5084,2906 5084,2933 5059,2975 5029,2999 4987,3033 4973,3070 4973,3158 4972,3221 4972,3272 4972,3271 4949,3253 4940,3246 4902,3216 4863,3186 4786,3121 4729,3072 4547,2917 4450,2852 4274,2767 4119,2691 3868,2481 3868,2426 3868,2376 3939,2414 4038,2516 4106,2586 4222,2662 4355,2726 4486,2788 4617,2875 4701,2955 4861,3105 4858,3106 4985,2826 5050,2682 5071,2601 5076,2467 5080,2372 5077,2308 5069,2325 5061,2342 5044,2350 5032,2342 5019,2334 5009,2354 5009,2385 5010,2433 5014,2436 5036,2405 5056,2378 5059,2402 5048,2496 5031,2641 4863,3028 4861,2925 4861,2891 4894,2792 4935,2706 4976,2619 5009,2526 5008,2496 5008,2467 4969,2541 4921,2661 4874,2782 4835,2907 4835,2940 4835,3017 4809,3015 4734,2935 4656,2852 4462,2724 4289,2644 4116,2564 3968,2419 4014,2374 4039,2350 4054,2353 4087,2394 4184,2511 4510,2556 4739,2486 L 4741,2489 Z"/>
       </g>
      </g>
      <g class="com.sun.star.drawing.ClosedBezierShape">
       <g id="id6">
        <rect class="BoundingBox" stroke="none" fill="none" x="3565" y="402" width="1377" height="2095"/>
        <path fill="rgb(255,255,215)" stroke="none" d="M 4723,2459 C 4697,2458 4660,2458 4612,2457 4496,2455 4374,2449 4339,2442 4279,2429 4279,2430 4333,2453 4364,2467 4389,2484 4389,2491 4389,2507 4310,2478 4269,2446 4250,2431 4211,2408 4182,2393 4074,2339 4103,2269 4233,2266 4370,2263 4582,2182 4503,2163 4477,2157 4415,2166 4365,2182 4315,2198 4247,2207 4214,2201 4156,2191 4156,2190 4228,2172 4353,2141 4485,2079 4529,2030 4581,1971 4571,1972 4428,2035 4269,2106 3925,2141 3853,2094 3697,1994 3468,1251 3610,1305 3632,1314 3663,1301 3682,1274 3701,1248 3725,1236 3737,1248 3748,1259 3729,1289 3695,1315 3631,1364 3665,1382 3744,1339 3786,1317 3788,1326 3777,1470 3759,1684 4013,1797 4037,1586 4043,1533 4041,1531 4017,1568 3963,1656 3771,1603 3819,1514 3918,1329 3849,1010 3708,997 L 3634,990 3694,1022 C 3727,1039 3759,1070 3765,1091 3774,1121 3770,1122 3743,1097 3725,1080 3688,1067 3660,1069 3615,1071 3614,1073 3654,1084 3698,1095 3795,1177 3795,1202 3795,1209 3745,1215 3683,1215 3572,1215 3572,1215 3572,1126 3572,999 3665,707 3722,655 3749,631 3770,599 3770,583 3770,481 3925,422 3964,508 4001,590 4208,597 4334,521 4449,450 4433,440 4300,499 4130,575 3920,510 4017,412 4035,394 4043,400 4043,429 4043,512 4150,532 4274,472 4409,407 4499,432 4475,528 4465,568 4480,601 4527,645 4602,715 4648,809 4639,875 4636,900 4647,936 4662,955 4678,974 4685,1002 4675,1016 4666,1031 4668,1057 4680,1073 4692,1090 4699,1220 4695,1364 4681,1823 4683,1870 4715,1993 4740,2089 4768,2130 4847,2187 4972,2278 4972,2303 4851,2371 4801,2399 4779,2414 4781,2424 L 4723,2459 Z"/>
       </g>
      </g>
      <g class="com.sun.star.drawing.ClosedBezierShape">
       <g id="id7">
        <rect class="BoundingBox" stroke="none" fill="none" x="3298" y="14261" width="528" height="398"/>
        <path fill="rgb(68,50,5)" stroke="none" d="M 3565,14528 C 3630,14457 3714,14367 3753,14330 L 3824,14261 3576,14261 C 3373,14261 3325,14268 3313,14300 3291,14357 3295,14378 3320,14339 3332,14319 3336,14379 3328,14482 L 3316,14658 3382,14658 C 3431,14658 3480,14623 3565,14528 Z"/>
       </g>
      </g>
      <g class="com.sun.star.drawing.ClosedBezierShape">
       <g id="id8">
        <rect class="BoundingBox" stroke="none" fill="none" x="90" y="11561" width="5604" height="2766"/>
        <path fill="rgb(191,0,65)" stroke="none" d="M 2456,14244 C 2679,14178 3237,13900 3671,13640 4313,13255 5764,11768 5689,11572 5670,11523 5539,11645 5551,11700 5554,11718 5547,11729 5535,11725 5515,11719 5376,11864 5137,12142 4494,12887 3904,13405 3334,13726 3199,13802 3094,13871 3100,13880 3107,13888 3085,13912 3051,13932 L 2989,13969 3047,13916 C 3132,13841 3104,13850 2860,13978 2740,14041 2608,14101 2567,14113 2526,14124 2448,14150 2394,14170 2116,14271 1004,14164 850,14022 816,13990 775,13971 760,13980 744,13989 740,13987 750,13976 760,13965 704,13909 625,13851 286,13604 150,13295 184,12847 206,12548 377,12122 455,12170 469,12179 472,12173 462,12157 452,12141 454,12128 467,12128 480,12128 533,12066 586,11990 638,11913 701,11840 725,11827 750,11814 769,11791 769,11775 769,11729 553,11953 520,12033 504,12071 477,12103 461,12103 374,12103 194,12424 141,12674 53,13088 79,13382 214,13495 233,13510 248,13543 248,13568 248,13613 684,14038 731,14038 745,14038 818,14075 893,14120 1250,14333 1966,14390 2456,14244 Z"/>
       </g>
      </g>
      <g class="com.sun.star.drawing.ClosedBezierShape">
       <g id="id9">
        <rect class="BoundingBox" stroke="none" fill="none" x="2460" y="13975" width="517" height="230"/>
        <path fill="rgb(0,0,0)" stroke="none" d="M 2463,14196 C 2472,14187 2538,14155 2610,14124 2682,14094 2794,14046 2859,14017 2923,13989 2976,13970 2976,13977 2976,13984 2896,14026 2797,14072 2610,14159 2435,14224 2463,14196 Z"/>
       </g>
      </g>
      <g class="com.sun.star.drawing.ClosedBezierShape">
       <g id="id10">
        <rect class="BoundingBox" stroke="none" fill="none" x="5414" y="11786" width="86" height="114"/>
        <path fill="rgb(128,0,128)" stroke="none" d="M 5429,11859 C 5444,11831 5468,11801 5483,11791 5503,11779 5503,11789 5483,11826 5468,11854 5443,11885 5428,11894 5409,11906 5409,11896 5429,11859 Z"/>
       </g>
      </g>
      <g class="com.sun.star.drawing.ClosedBezierShape">
       <g id="id11">
        <rect class="BoundingBox" stroke="none" fill="none" x="2945" y="12474" width="2186" height="1747"/>
        <path fill="rgb(128,0,128)" stroke="none" d="M 4187,14148 C 4314,14116 4509,14077 4621,14062 5104,13996 5087,14023 5097,13322 5101,13027 5111,12710 5120,12618 5142,12398 5168,12382 4640,12918 4321,13241 4122,13422 3993,13505 3891,13570 3746,13665 3671,13715 3476,13844 3163,14013 3117,14013 3096,14013 3048,14039 3012,14070 L 2945,14128 3227,14170 C 3705,14241 3830,14238 4187,14148 Z"/>
       </g>
      </g>
      <g class="com.sun.star.drawing.ClosedBezierShape">
       <g id="id12">
        <rect class="BoundingBox" stroke="none" fill="none" x="208" y="4717" width="5430" height="9464"/>
        <path fill="rgb(191,0,65)" stroke="none" d="M 2567,14059 C 2804,13968 3403,13651 3695,13461 3873,13346 4322,12943 4586,12661 4701,12538 4903,12326 5035,12190 5167,12053 5356,11837 5455,11708 L 5637,11474 5577,11426 C 5544,11399 5426,11333 5315,11280 5138,11195 5110,11173 5095,11105 5075,11017 5100,10067 5136,9523 5149,9326 5170,8907 5184,8593 5197,8280 5219,7805 5233,7539 5279,6683 5285,6354 5256,6423 5241,6457 5230,6580 5231,6696 5232,6891 5220,6998 5158,7328 5136,7443 5136,7439 5145,7266 5162,6972 5117,7119 5085,7465 5070,7635 5041,7903 5021,8060 5001,8217 4973,8446 4958,8569 4943,8691 4920,8853 4908,8928 4896,9003 4863,9365 4836,9734 4808,10102 4780,10437 4773,10478 4766,10519 4738,10810 4711,11123 4661,11692 4606,12118 4578,12146 4556,12167 4559,12140 4600,11865 4620,11730 4649,11446 4663,11235 4678,11023 4706,10705 4725,10528 4763,10183 4769,9950 4733,10218 4722,10307 4695,10502 4674,10652 4653,10802 4620,11069 4599,11246 4579,11422 4556,11572 4548,11580 4531,11598 4551,11386 4613,10900 4690,10301 4742,9802 4732,9771 4727,9756 4697,9931 4665,10160 4592,10688 4544,10967 4541,10888 4539,10832 4608,10286 4689,9722 4705,9606 4732,9494 4748,9474 4765,9453 4792,9314 4809,9164 4826,9014 4857,8819 4877,8731 4897,8644 4923,8487 4936,8384 4948,8281 4985,7979 5019,7713 5052,7447 5094,7084 5112,6907 5137,6657 5149,6604 5162,6671 5172,6719 5174,6655 5166,6529 5158,6382 5162,6299 5178,6299 5205,6299 5230,6132 5232,5939 5233,5871 5249,5715 5269,5592 L 5305,5369 5296,5654 C 5288,5948 5292,5940 5353,5539 5374,5399 5353,5349 5266,5327 5205,5311 5199,5330 5110,5766 5083,5902 5039,6098 5013,6200 4987,6302 4919,6637 4862,6944 4805,7251 4748,7552 4734,7614 4721,7675 4671,7898 4624,8110 4514,8601 4500,8671 4423,9089 4388,9280 4344,9520 4325,9623 4305,9725 4257,10038 4216,10317 4126,10941 4088,11148 4007,11483 3971,11626 3943,11761 3943,11783 3943,11849 3845,11954 3784,11954 3753,11954 3707,11977 3682,12004 3639,12051 3316,12169 3260,12158 3246,12155 3223,12184 3208,12221 3186,12278 2830,12500 2760,12500 2729,12500 2817,12419 2869,12399 2927,12377 2996,12264 2969,12237 2961,12229 2895,12280 2822,12351 2750,12423 2655,12508 2611,12542 2568,12575 2538,12617 2544,12635 2551,12653 2539,12674 2518,12682 2497,12690 2479,12712 2479,12732 2479,12751 2464,12780 2445,12795 2381,12848 2475,12625 2576,12482 2795,12174 3612,11744 3742,11869 3756,11883 3624,11929 3568,11929 3475,11929 3348,11999 3348,12050 3348,12112 3525,12065 3682,11962 3737,11925 3787,11897 3794,11898 3860,11910 3924,11709 3978,11322 3999,11172 4061,10823 4116,10546 4171,10270 4249,9818 4290,9542 4332,9266 4377,8995 4391,8941 4406,8886 4429,8780 4442,8705 4456,8630 4514,8344 4573,8072 4632,7800 4695,7498 4712,7403 4729,7307 4770,7112 4803,6969 4835,6826 4883,6591 4910,6448 4936,6305 4984,6081 5017,5952 5051,5822 5097,5627 5121,5518 5145,5409 5174,5307 5186,5291 5211,5260 5173,5133 5139,5133 5116,5133 4812,5782 4810,5833 4809,5851 4792,5910 4771,5964 4751,6019 4707,6153 4674,6263 4641,6373 4570,6570 4515,6700 4337,7128 4118,7761 4092,7918 4079,8003 4028,8189 3980,8332 3932,8475 3881,8661 3866,8746 3835,8922 3773,9036 3767,8928 3764,8870 3763,8871 3744,8941 3699,9110 3469,9824 3397,10020 3354,10136 3291,10353 3257,10503 3094,11228 2941,11675 2818,11782 2783,11813 2761,11850 2769,11865 2778,11880 2776,11884 2765,11874 2754,11864 2732,11871 2717,11890 2629,12000 2204,12347 1934,12531 1900,12554 1822,12608 1760,12652 1645,12733 1438,12781 1438,12726 1438,12711 1473,12698 1516,12698 1581,12698 1810,12593 1810,12563 1810,12558 1754,12576 1685,12601 1553,12652 1462,12662 1462,12627 1462,12615 1506,12600 1558,12593 1679,12577 1797,12520 1909,12424 1993,12353 1994,12351 1926,12376 1778,12429 1805,12395 1983,12306 2173,12211 2538,11976 2566,11929 2575,11915 2592,11910 2605,11918 2617,11926 2659,11879 2696,11815 2734,11750 2784,11681 2808,11660 2832,11638 2851,11612 2851,11601 2851,11590 2879,11539 2912,11489 2990,11369 3154,10828 3135,10752 3119,10690 3234,10248 3336,9977 3371,9885 3443,9664 3496,9486 3573,9226 3713,8813 3857,8420 3869,8387 3867,8379 3851,8395 3826,8421 3760,8590 3682,8829 3658,8904 3563,9127 3471,9325 3379,9523 3281,9738 3252,9803 3225,9867 3188,9919 3172,9919 3156,9919 3100,9959 3047,10006 2994,10054 2938,10093 2922,10093 2886,10093 3090,9914 3155,9889 3181,9879 3196,9860 3188,9847 3176,9828 3266,9621 3390,9386 3540,9101 3547,9084 3707,8642 3752,8519 3821,8346 3862,8258 3902,8169 3954,8029 3978,7948 4032,7760 4148,7453 4129,7545 4107,7654 4136,7623 4176,7495 4196,7430 4263,7238 4326,7068 4388,6898 4436,6747 4431,6733 4419,6698 4516,6424 4624,6187 4673,6079 4730,5934 4751,5863 4771,5792 4860,5588 4948,5409 5136,5029 5129,5068 5027,4960 4951,4881 4948,4870 4983,4830 5033,4771 5059,4773 5059,4836 5059,4882 5068,4880 5157,4805 5273,4707 5271,4701 5131,4737 4951,4783 4640,4834 4377,4861 4070,4892 4042,4901 4042,4960 4042,5038 3968,5017 3952,4934 3944,4893 3922,4860 3905,4860 3853,4860 3794,4888 3794,4913 3794,4926 3805,4930 3819,4922 3833,4913 3844,4917 3844,4931 3844,4972 3794,4990 3759,4961 3705,4916 3503,5425 3282,6162 3082,6827 3020,7075 2976,7390 2961,7492 2916,7771 2875,8010 2670,9206 2645,9444 2614,10478 2605,10791 2587,11061 2574,11077 2562,11092 2559,11135 2569,11172 2582,11226 2569,11255 2499,11329 2451,11379 2361,11501 2298,11600 2235,11699 2171,11780 2157,11780 2131,11780 2253,11581 2363,11445 2492,11285 2506,11228 2530,10768 2592,9597 2721,8471 2889,7613 2936,7374 3002,7039 3036,6869 3070,6698 3125,6459 3159,6336 3194,6214 3218,6110 3213,6105 3204,6097 3153,6258 2958,6894 2910,7050 2822,7330 2763,7514 2705,7698 2637,7932 2614,8035 2581,8181 2567,8210 2551,8171 2536,8136 2534,8145 2544,8202 2552,8246 2548,8283 2535,8283 2522,8283 2511,8313 2510,8351 2509,8388 2490,8461 2469,8512 2447,8563 2435,8605 2443,8605 2450,8605 2441,8636 2422,8673 2278,8957 1820,11101 1775,11705 1763,11859 1675,12231 1614,12384 1576,12479 1549,12449 1583,12351 1607,12280 1605,12275 1547,12275 1511,12275 1455,12244 1411,12199 1316,12101 1336,12074 1439,12161 1569,12270 1598,12250 1624,12034 1675,11613 1652,11566 1496,11770 1458,11819 1423,11847 1418,11832 1413,11816 1399,11810 1386,11818 1309,11866 1383,11769 1469,11709 1610,11611 1679,11534 1700,11448 1717,11378 1717,11378 1563,11492 1402,11610 1295,11651 1426,11545 1467,11511 1488,11483 1473,11483 1458,11482 1406,11526 1357,11581 1267,11681 1230,11700 1203,11657 1195,11643 1292,11564 1419,11481 1545,11397 1627,11335 1599,11342 1200,11454 1103,11484 1083,11504 1068,11520 1081,11524 1118,11516 1154,11508 1124,11537 1042,11591 967,11639 898,11679 888,11680 878,11680 852,11714 831,11756 809,11797 765,11844 731,11859 698,11874 665,11906 657,11931 638,11992 482,12220 397,12313 -122,12879 510,14108 1321,14111 1379,14112 1481,14128 1550,14147 1788,14215 2270,14173 2567,14058 L 2567,14059 Z"/>
       </g>
      </g>
      <g class="com.sun.star.drawing.ClosedBezierShape">
       <g id="id13">
        <rect class="BoundingBox" stroke="none" fill="none" x="1249" y="12703" width="1071" height="1056"/>
        <path fill="rgb(0,0,0)" stroke="none" d="M 1652,13739 C 1612,13727 1545,13685 1503,13645 1461,13605 1390,13554 1346,13532 1159,13437 1258,13216 1508,13169 1771,13119 1957,13023 2128,12847 2210,12762 2291,12698 2308,12703 2337,12713 2318,12733 2059,12965 1936,13075 1700,13182 1521,13209 1323,13239 1244,13393 1380,13485 1417,13509 1477,13560 1514,13597 1628,13711 1927,13761 2062,13689 2089,13675 2124,13667 2141,13673 2293,13724 1818,13789 1652,13739 Z"/>
       </g>
      </g>
      <g class="com.sun.star.drawing.ClosedBezierShape">
       <g id="id14">
        <rect class="BoundingBox" stroke="none" fill="none" x="629" y="12552" width="532" height="1129"/>
        <path fill="rgb(0,0,0)" stroke="none" d="M 1081,13614 C 947,13455 886,13296 880,13092 877,12987 867,12891 859,12877 850,12863 855,12848 870,12843 888,12837 891,12801 880,12742 860,12633 794,12602 707,12659 632,12708 618,12709 636,12662 648,12631 891,12536 906,12556 939,12601 967,12767 964,12907 961,13056 958,13070 941,12996 926,12932 923,12958 928,13095 935,13290 982,13418 1109,13587 1190,13694 1167,13716 1081,13614 Z"/>
       </g>
      </g>
      <g class="com.sun.star.drawing.ClosedBezierShape">
       <g id="id15">
        <rect class="BoundingBox" stroke="none" fill="none" x="2580" y="12847" width="880" height="511"/>
        <path fill="rgb(0,0,0)" stroke="none" d="M 2580,13341 C 2580,13320 2655,13296 2915,13236 3174,13176 3339,13067 3396,12915 3410,12878 3433,12847 3447,12847 3491,12847 3403,13029 3329,13090 3185,13212 2580,13414 2580,13341 Z"/>
       </g>
      </g>
      <g class="com.sun.star.drawing.ClosedBezierShape">
       <g id="id16">
        <rect class="BoundingBox" stroke="none" fill="none" x="1568" y="13178" width="295" height="168"/>
        <path fill="rgb(0,0,0)" stroke="none" d="M 1661,13285 C 1701,13277 1758,13247 1787,13218 1816,13189 1845,13172 1853,13180 1871,13198 1871,13198 1751,13278 1660,13340 1544,13368 1573,13322 1580,13310 1620,13293 1661,13285 Z"/>
       </g>
      </g>
      <g class="com.sun.star.drawing.ClosedBezierShape">
       <g id="id17">
        <rect class="BoundingBox" stroke="none" fill="none" x="1969" y="12877" width="283" height="294"/>
        <path fill="rgb(0,0,0)" stroke="none" d="M 2090,13021 C 2256,12860 2271,12849 2235,12915 2190,12999 2016,13170 1976,13170 1951,13170 1995,13112 2090,13021 Z"/>
       </g>
      </g>
      <g class="com.sun.star.drawing.ClosedBezierShape">
       <g id="id18">
        <rect class="BoundingBox" stroke="none" fill="none" x="721" y="12767" width="145" height="297"/>
        <path fill="rgb(0,0,0)" stroke="none" d="M 827,13051 C 789,13027 719,12853 721,12788 722,12751 733,12762 756,12826 775,12876 809,12946 832,12982 877,13050 874,13080 827,13051 Z"/>
       </g>
      </g>
      <g class="com.sun.star.drawing.ClosedBezierShape">
       <g id="id19">
        <rect class="BoundingBox" stroke="none" fill="none" x="3485" y="12849" width="187" height="125"/>
        <path fill="rgb(0,0,0)" stroke="none" d="M 3559,12910 C 3636,12846 3671,12832 3671,12868 3671,12879 3629,12907 3578,12930 L 3485,12972 3559,12910 Z"/>
       </g>
      </g>
      <g class="com.sun.star.drawing.ClosedBezierShape">
       <g id="id20">
        <rect class="BoundingBox" stroke="none" fill="none" x="4042" y="11843" width="368" height="1081"/>
        <path fill="rgb(0,0,0)" stroke="none" d="M 4042,12892 C 4042,12884 4079,12801 4125,12707 4223,12508 4294,12291 4352,12021 4401,11793 4430,11780 4389,12004 4325,12355 4042,13080 4042,12892 Z"/>
       </g>
      </g>
      <g class="com.sun.star.drawing.ClosedBezierShape">
       <g id="id21">
        <rect class="BoundingBox" stroke="none" fill="none" x="577" y="12732" width="44" height="140"/>
        <path fill="rgb(0,0,0)" stroke="none" d="M 580,12836 C 573,12817 578,12780 592,12756 615,12718 619,12723 619,12791 620,12877 603,12896 580,12836 Z"/>
       </g>
      </g>
      <g class="com.sun.star.drawing.ClosedBezierShape">
       <g id="id22">
        <rect class="BoundingBox" stroke="none" fill="none" x="3522" y="12512" width="348" height="358"/>
        <path fill="rgb(0,0,0)" stroke="none" d="M 3522,12864 C 3522,12841 3674,12769 3689,12784 3713,12808 3768,12748 3755,12713 3748,12696 3760,12675 3781,12666 3802,12658 3820,12632 3820,12607 3820,12583 3831,12546 3844,12526 3862,12498 3869,12512 3869,12581 3869,12693 3751,12844 3664,12842 3634,12841 3589,12849 3565,12859 3542,12870 3522,12872 3522,12864 Z"/>
       </g>
      </g>
      <g class="com.sun.star.drawing.ClosedBezierShape">
       <g id="id23">
        <rect class="BoundingBox" stroke="none" fill="none" x="1206" y="11904" width="119" height="870"/>
        <path fill="rgb(0,0,0)" stroke="none" d="M 1216,12599 C 1185,12379 1227,11982 1288,11921 1330,11878 1334,11913 1299,12041 1238,12272 1230,12455 1275,12610 1298,12689 1310,12760 1303,12767 1295,12775 1288,12765 1287,12746 1286,12726 1277,12732 1266,12761 1252,12796 1238,12749 1216,12599 Z"/>
       </g>
      </g>
      <g class="com.sun.star.drawing.ClosedBezierShape">
       <g id="id24">
        <rect class="BoundingBox" stroke="none" fill="none" x="471" y="11687" width="743" height="815"/>
        <path fill="rgb(0,0,0)" stroke="none" d="M 570,12376 C 639,12306 690,12241 683,12230 676,12219 740,12143 825,12063 910,11982 1026,11861 1082,11794 1139,11726 1194,11679 1206,11690 1217,11701 1215,11718 1202,11727 1189,11737 1147,11792 1109,11850 1023,11984 519,12502 476,12501 459,12501 501,12445 570,12376 Z"/>
       </g>
      </g>
      <g class="com.sun.star.drawing.ClosedBezierShape">
       <g id="id25">
        <rect class="BoundingBox" stroke="none" fill="none" x="695" y="12116" width="138" height="112"/>
        <path fill="rgb(0,0,0)" stroke="none" d="M 784,12172 L 831,12116 769,12165 C 735,12192 702,12217 697,12221 691,12224 698,12227 711,12227 725,12227 758,12202 784,12172 Z"/>
       </g>
      </g>
      <g class="com.sun.star.drawing.ClosedBezierShape">
       <g id="id26">
        <rect class="BoundingBox" stroke="none" fill="none" x="3373" y="12212" width="621" height="156"/>
        <path fill="rgb(0,0,0)" stroke="none" d="M 3534,12349 C 3448,12317 3373,12257 3373,12220 3373,12206 3387,12212 3404,12233 3478,12326 3785,12359 3920,12290 3960,12269 3993,12262 3993,12273 3993,12343 3664,12397 3534,12349 Z"/>
       </g>
      </g>
      <g class="com.sun.star.drawing.ClosedBezierShape">
       <g id="id27">
        <rect class="BoundingBox" stroke="none" fill="none" x="4417" y="11372" width="71" height="382"/>
        <path fill="rgb(0,0,0)" stroke="none" d="M 4417,11719 C 4416,11692 4432,11602 4451,11520 L 4486,11372 4471,11520 C 4456,11679 4418,11818 4417,11719 Z"/>
       </g>
      </g>
      <g class="com.sun.star.drawing.ClosedBezierShape">
       <g id="id28">
        <rect class="BoundingBox" stroke="none" fill="none" x="3500" y="9530" width="364" height="2026"/>
        <path fill="rgb(0,0,0)" stroke="none" d="M 3577,11461 C 3502,11290 3484,11156 3516,11004 3531,10933 3556,10775 3572,10652 3619,10287 3823,9495 3860,9532 3867,9539 3856,9599 3834,9665 3656,10209 3576,10779 3620,11204 3658,11582 3650,11630 3577,11461 Z"/>
       </g>
      </g>
      <g class="com.sun.star.drawing.ClosedBezierShape">
       <g id="id29">
        <rect class="BoundingBox" stroke="none" fill="none" x="3553" y="11078" width="16" height="186"/>
        <path fill="rgb(0,0,0)" stroke="none" d="M 3564,11093 C 3558,11056 3553,11092 3554,11174 3554,11256 3558,11287 3564,11242 3569,11197 3569,11130 3564,11093 Z"/>
       </g>
      </g>
      <g class="com.sun.star.drawing.ClosedBezierShape">
       <g id="id30">
        <rect class="BoundingBox" stroke="none" fill="none" x="2753" y="10665" width="175" height="695"/>
        <path fill="rgb(0,0,0)" stroke="none" d="M 2753,11352 C 2753,11341 2783,11275 2819,11203 2873,11096 2885,11039 2887,10869 2888,10757 2898,10665 2908,10665 2937,10665 2930,10987 2899,11098 2875,11186 2753,11398 2753,11352 Z"/>
       </g>
      </g>
      <g class="com.sun.star.drawing.ClosedBezierShape">
       <g id="id31">
        <rect class="BoundingBox" stroke="none" fill="none" x="4519" y="10984" width="17" height="109"/>
        <path fill="rgb(0,0,0)" stroke="none" d="M 4519,11038 C 4519,10990 4524,10971 4530,10994 4536,11018 4536,11057 4530,11081 4524,11105 4519,11086 4519,11038 Z"/>
       </g>
      </g>
      <g class="com.sun.star.drawing.ClosedBezierShape">
       <g id="id32">
        <rect class="BoundingBox" stroke="none" fill="none" x="2830" y="9957" width="70" height="402"/>
        <path fill="rgb(0,0,0)" stroke="none" d="M 2852,10169 C 2835,10059 2826,9963 2832,9957 2839,9951 2858,10036 2876,10145 2894,10255 2903,10350 2896,10357 2889,10363 2870,10279 2852,10169 Z"/>
       </g>
      </g>
      <g class="com.sun.star.drawing.ClosedBezierShape">
       <g id="id33">
        <rect class="BoundingBox" stroke="none" fill="none" x="3160" y="5015" width="677" height="4012"/>
        <path fill="rgb(0,0,0)" stroke="none" d="M 3280,8998 C 3183,8876 3136,8620 3172,8413 3186,8336 3203,8060 3211,7801 3227,7275 3281,6744 3337,6570 3358,6507 3380,6406 3387,6347 3409,6166 3490,5829 3570,5593 3611,5471 3658,5331 3673,5283 3703,5187 3816,5000 3834,5017 3840,5023 3818,5083 3785,5150 3672,5377 3519,5853 3497,6047 3475,6235 3454,6338 3378,6635 3358,6717 3332,6907 3321,7057 3311,7207 3291,7447 3277,7590 3182,8562 3182,8768 3274,8925 3324,9009 3328,9059 3280,8998 Z"/>
       </g>
      </g>
      <g class="com.sun.star.drawing.ClosedBezierShape">
       <g id="id34">
        <rect class="BoundingBox" stroke="none" fill="none" x="3353" y="7826" width="103" height="135"/>
        <path fill="rgb(0,0,0)" stroke="none" d="M 3371,7916 C 3384,7891 3415,7854 3439,7835 3465,7813 3459,7831 3423,7881 3358,7970 3333,7986 3371,7916 Z"/>
       </g>
      </g>
      <g class="com.sun.star.drawing.ClosedBezierShape">
       <g id="id35">
        <rect class="BoundingBox" stroke="none" fill="none" x="3511" y="7351" width="632" height="461"/>
        <path fill="rgb(0,0,0)" stroke="none" d="M 3574,7738 C 3620,7697 3742,7608 3844,7540 3947,7473 4056,7400 4086,7377 4130,7345 4142,7343 4142,7370 4142,7389 4064,7454 3968,7516 3872,7577 3736,7669 3666,7720 3512,7832 3457,7843 3574,7738 Z"/>
       </g>
      </g>
      <g class="com.sun.star.drawing.ClosedBezierShape">
       <g id="id36">
        <rect class="BoundingBox" stroke="none" fill="none" x="3791" y="5069" width="1190" height="2134"/>
        <path fill="rgb(0,0,0)" stroke="none" d="M 3857,7029 C 3906,6923 3979,6781 4021,6713 4063,6645 4102,6562 4108,6529 4122,6455 4324,6049 4414,5916 4451,5861 4547,5700 4626,5556 4768,5303 4954,5046 4979,5071 4986,5077 4952,5138 4904,5205 4855,5272 4770,5419 4714,5531 4554,5852 4217,6474 4129,6610 4085,6679 3997,6837 3933,6963 3791,7245 3738,7291 3857,7029 Z"/>
       </g>
      </g>
      <g class="com.sun.star.drawing.ClosedBezierShape">
       <g id="id37">
        <rect class="BoundingBox" stroke="none" fill="none" x="3797" y="5041" width="186" height="754"/>
        <path fill="rgb(0,0,0)" stroke="none" d="M 3797,5707 C 3794,5575 3858,5300 3933,5119 3989,4986 4001,5035 3947,5175 3907,5277 3852,5523 3811,5779 3805,5814 3799,5781 3797,5707 Z"/>
       </g>
      </g>
      <g class="com.sun.star.drawing.ClosedBezierShape">
       <g id="id38">
        <rect class="BoundingBox" stroke="none" fill="none" x="4165" y="4837" width="743" height="742"/>
        <path fill="rgb(0,0,0)" stroke="none" d="M 4166,5554 C 4166,5516 4243,5420 4408,5252 4547,5109 4547,5108 4517,5022 4499,4975 4492,4925 4501,4911 4521,4879 4588,4879 4588,4911 4588,4925 4577,4936 4563,4936 4549,4936 4538,4947 4538,4961 4538,4974 4556,4986 4577,4986 4605,4986 4611,5000 4599,5037 4583,5088 4584,5088 4651,5045 4688,5020 4706,4996 4690,4991 4656,4979 4653,4911 4687,4911 4701,4911 4712,4928 4712,4948 4712,4969 4723,4986 4736,4986 4750,4986 4761,4952 4761,4911 4761,4832 4802,4810 4827,4875 4836,4899 4858,4908 4882,4899 4940,4877 4905,4906 4643,5096 4481,5214 4380,5310 4300,5422 4184,5584 4166,5602 4166,5554 Z"/>
       </g>
      </g>
      <g class="com.sun.star.drawing.ClosedBezierShape">
       <g id="id39">
        <rect class="BoundingBox" stroke="none" fill="none" x="4220" y="4911" width="97" height="174"/>
        <path fill="rgb(0,0,0)" stroke="none" d="M 4226,5024 C 4208,4954 4228,4911 4279,4911 4316,4911 4326,4977 4300,5046 4278,5103 4244,5093 4226,5024 Z"/>
       </g>
      </g>
      <g class="com.sun.star.drawing.ClosedBezierShape">
       <g id="id40">
        <rect class="BoundingBox" stroke="none" fill="none" x="4392" y="4954" width="69" height="58"/>
        <path fill="rgb(0,0,0)" stroke="none" d="M 4394,4986 C 4407,4948 4447,4944 4458,4979 4464,4996 4450,5010 4427,5010 4405,5010 4390,4999 4394,4986 Z"/>
       </g>
      </g>
      <g class="com.sun.star.drawing.ClosedBezierShape">
       <g id="id41">
        <rect class="BoundingBox" stroke="none" fill="none" x="5226" y="11985" width="321" height="1890"/>
        <path fill="rgb(128,0,128)" stroke="none" d="M 5429,13802 C 5462,13770 5471,13643 5486,13026 5496,12621 5514,12222 5527,12140 5539,12058 5547,11989 5545,11986 5542,11983 5469,12065 5383,12169 L 5226,12358 5238,12857 C 5245,13131 5243,13456 5233,13579 5209,13865 5283,13949 5429,13802 Z"/>
       </g>
      </g>
      <g class="com.sun.star.drawing.ClosedBezierShape">
       <g id="id42">
        <rect class="BoundingBox" stroke="none" fill="none" x="5704" y="13422" width="1092" height="313"/>
        <path fill="rgb(68,50,5)" stroke="none" d="M 6394,13658 C 6495,13622 6593,13592 6613,13592 6677,13592 6795,13518 6795,13477 6795,13349 5986,13467 5842,13616 5802,13658 5755,13692 5737,13692 5719,13692 5704,13700 5704,13710 5704,13761 6214,13722 6394,13658 Z"/>
       </g>
      </g>
      <g class="com.sun.star.drawing.ClosedBezierShape">
       <g id="id43">
        <rect class="BoundingBox" stroke="none" fill="none" x="5540" y="10689" width="431" height="3023"/>
        <path fill="rgb(128,0,128)" stroke="none" d="M 5808,13563 C 5889,13452 5900,13289 5935,11638 5935,11621 5947,11606 5962,11606 5977,11605 5968,11589 5942,11570 5897,11536 5895,11509 5911,11112 5920,10879 5921,10689 5913,10689 5815,10689 5803,10735 5803,11097 5803,11478 5758,11705 5656,11834 5613,11890 5607,11954 5595,12576 5580,13347 5579,13368 5557,13232 5547,13172 5541,13248 5540,13422 L 5540,13711 5652,13666 C 5714,13642 5784,13596 5808,13563 Z"/>
       </g>
      </g>
      <g class="com.sun.star.drawing.ClosedBezierShape">
       <g id="id44">
        <rect class="BoundingBox" stroke="none" fill="none" x="5116" y="13459" width="16" height="185"/>
        <path fill="rgb(128,0,128)" stroke="none" d="M 5126,13474 C 5121,13437 5116,13473 5116,13555 5116,13637 5121,13667 5127,13623 5132,13578 5132,13511 5126,13474 Z"/>
       </g>
      </g>
      <g class="com.sun.star.drawing.ClosedBezierShape">
       <g id="id45">
        <rect class="BoundingBox" stroke="none" fill="none" x="5973" y="11626" width="346" height="1801"/>
        <path fill="rgb(128,0,128)" stroke="none" d="M 6240,13356 C 6290,13323 6293,13296 6307,12706 6330,11752 6344,11806 6039,11626 6022,11617 6012,11893 6010,12431 6008,12881 5999,13289 5990,13337 L 5973,13425 6080,13407 C 6139,13398 6211,13375 6240,13356 Z"/>
       </g>
      </g>
      <g class="com.sun.star.drawing.ClosedBezierShape">
       <g id="id46">
        <rect class="BoundingBox" stroke="none" fill="none" x="6355" y="11856" width="350" height="1336"/>
        <path fill="rgb(128,0,128)" stroke="none" d="M 6514,13147 C 6642,13088 6647,13064 6653,12467 6655,12224 6664,12045 6672,12069 6685,12105 6689,12106 6702,12074 6712,12048 6671,12010 6563,11947 L 6411,11856 6394,12246 C 6384,12461 6370,12762 6362,12915 6346,13227 6344,13224 6514,13147 Z"/>
       </g>
      </g>
      <g class="com.sun.star.drawing.ClosedBezierShape">
       <g id="id47">
        <rect class="BoundingBox" stroke="none" fill="none" x="5512" y="12638" width="17" height="155"/>
        <path fill="rgb(128,0,128)" stroke="none" d="M 5523,12655 C 5517,12618 5513,12643 5512,12711 5512,12779 5517,12810 5523,12779 5529,12749 5529,12693 5523,12655 Z"/>
       </g>
      </g>
      <g class="com.sun.star.drawing.ClosedBezierShape">
       <g id="id48">
        <rect class="BoundingBox" stroke="none" fill="none" x="1974" y="12123" width="418" height="326"/>
        <path fill="rgb(0,0,0)" stroke="none" d="M 2171,12313 C 2270,12238 2366,12158 2384,12135 2420,12090 2296,12178 2088,12345 1896,12499 1961,12474 2171,12313 Z"/>
       </g>
      </g>
      <g class="com.sun.star.drawing.ClosedBezierShape">
       <g id="id49">
        <rect class="BoundingBox" stroke="none" fill="none" x="2990" y="12057" width="229" height="275"/>
        <path fill="rgb(191,0,65)" stroke="none" d="M 3122,12203 C 3140,12132 3145,12127 3147,12177 3151,12250 3187,12218 3209,12122 3228,12043 3222,12041 3128,12089 3040,12135 3012,12172 2994,12268 2972,12384 3089,12324 3122,12203 Z"/>
       </g>
      </g>
      <g class="com.sun.star.drawing.ClosedBezierShape">
       <g id="id50">
        <rect class="BoundingBox" stroke="none" fill="none" x="6733" y="12070" width="160" height="278"/>
        <path fill="rgb(128,0,128)" stroke="none" d="M 6839,12313 C 6913,12261 6908,12201 6822,12118 6736,12035 6722,12052 6739,12221 6753,12364 6759,12369 6839,12313 Z"/>
       </g>
      </g>
      <g class="com.sun.star.drawing.ClosedBezierShape">
       <g id="id51">
        <rect class="BoundingBox" stroke="none" fill="none" x="3248" y="12013" width="76" height="102"/>
        <path fill="rgb(191,0,65)" stroke="none" d="M 3322,12021 C 3322,12008 3306,12012 3285,12029 3265,12046 3248,12078 3249,12100 3250,12145 3322,12067 3322,12021 Z"/>
       </g>
      </g>
      <g class="com.sun.star.drawing.ClosedBezierShape">
       <g id="id52">
        <rect class="BoundingBox" stroke="none" fill="none" x="5952" y="11483" width="982" height="542"/>
        <path fill="rgb(128,0,128)" stroke="none" d="M 6904,11976 C 6819,11881 6657,11785 6479,11723 6383,11689 6241,11621 6164,11572 6030,11487 5952,11461 5952,11504 5952,11515 5988,11543 6032,11567 6077,11591 6219,11667 6349,11737 6901,12034 6990,12072 6904,11977 L 6904,11976 Z"/>
       </g>
      </g>
      <g class="com.sun.star.drawing.ClosedBezierShape">
       <g id="id53">
        <rect class="BoundingBox" stroke="none" fill="none" x="6011" y="5333" width="931" height="6551"/>
        <path fill="rgb(128,0,128)" stroke="none" d="M 6941,11613 C 6940,11467 6931,11235 6921,11099 6910,10944 6913,10838 6928,10818 6945,10795 6944,10779 6925,10768 6907,10757 6895,10575 6890,10228 6883,9811 6876,9714 6851,9745 6813,9796 6810,9322 6845,8542 6862,8168 6861,7844 6843,7525 6829,7267 6812,6951 6806,6821 6784,6315 6697,5781 6587,5469 6518,5275 6504,5291 6557,5503 6625,5773 6690,6538 6735,7602 6859,10527 6845,10715 6487,10936 6438,10966 6398,11000 6398,11010 6398,11020 6368,11044 6331,11064 6253,11104 6223,11132 6095,11284 5977,11423 5974,11414 6161,11494 6249,11532 6334,11578 6350,11597 6366,11616 6394,11632 6411,11632 6454,11632 6864,11827 6883,11857 6926,11927 6943,11854 6941,11613 Z"/>
       </g>
      </g>
      <g class="com.sun.star.drawing.ClosedBezierShape">
       <g id="id54">
        <rect class="BoundingBox" stroke="none" fill="none" x="5190" y="10786" width="559" height="682"/>
        <path fill="rgb(128,0,128)" stroke="none" d="M 5747,11041 L 5744,10786 5681,10801 C 5579,10827 5264,10988 5219,11038 5154,11110 5185,11144 5438,11281 5567,11350 5682,11427 5692,11451 5724,11525 5750,11327 5747,11041 Z"/>
       </g>
      </g>
      <g class="com.sun.star.drawing.ClosedBezierShape">
       <g id="id55">
        <rect class="BoundingBox" stroke="none" fill="none" x="5957" y="10460" width="762" height="876"/>
        <path fill="rgb(128,0,128)" stroke="none" d="M 6242,11028 C 6555,10791 6611,10737 6664,10623 6745,10450 6741,10441 6603,10478 6538,10495 6449,10528 6405,10550 6362,10573 6288,10591 6241,10591 6194,10591 6112,10611 6060,10635 L 5964,10678 5961,11007 5957,11335 6040,11227 C 6085,11167 6176,11078 6242,11028 Z"/>
       </g>
      </g>
      <g class="com.sun.star.drawing.ClosedBezierShape">
       <g id="id56">
        <rect class="BoundingBox" stroke="none" fill="none" x="4046" y="10948" width="41" height="180"/>
        <path fill="rgb(0,0,0)" stroke="none" d="M 4086,10976 C 4086,10936 4082,10939 4067,10988 4056,11022 4047,11072 4047,11100 4047,11139 4051,11136 4067,11087 4078,11053 4086,11003 4086,10976 Z"/>
       </g>
      </g>
      <g class="com.sun.star.drawing.ClosedBezierShape">
       <g id="id57">
        <rect class="BoundingBox" stroke="none" fill="none" x="5158" y="10311" width="1561" height="630"/>
        <path fill="rgb(191,0,65)" stroke="none" d="M 5758,10692 C 5823,10662 5882,10628 5890,10614 5898,10601 5936,10590 5973,10590 6010,10590 6051,10581 6064,10570 6119,10522 6422,10410 6572,10382 6745,10349 6772,10300 6609,10313 6445,10326 6324,10365 6059,10493 5921,10560 5770,10622 5724,10630 5617,10648 5337,10785 5257,10857 5223,10887 5187,10913 5177,10913 5166,10913 5158,10923 5158,10936 5158,10956 5336,10884 5758,10692 Z"/>
       </g>
      </g>
      <g class="com.sun.star.drawing.ClosedBezierShape">
       <g id="id58">
        <rect class="BoundingBox" stroke="none" fill="none" x="5162" y="5257" width="1608" height="5584"/>
        <path fill="rgb(191,0,65)" stroke="none" d="M 5267,10781 C 5373,10700 5474,10651 5684,10576 5784,10541 5937,10472 6026,10423 6319,10260 6373,10241 6552,10232 6648,10227 6739,10210 6754,10195 6775,10173 6773,10168 6745,10174 6696,10185 6678,9900 6673,9041 6666,7817 6589,6221 6519,5829 6490,5672 6461,5495 6454,5436 6441,5330 6439,5328 6364,5344 6321,5353 6224,5371 6147,5384 6021,5405 5828,5470 5828,5491 5828,5495 5843,5531 5863,5571 5882,5610 5933,5730 5977,5837 6044,6000 6065,6029 6105,6019 6135,6011 6149,6017 6143,6035 6104,6154 6017,6059 5899,5768 5788,5498 5742,5420 5705,5444 5697,5449 5670,5409 5644,5355 5581,5226 5522,5224 5544,5351 5554,5403 5572,5458 5584,5474 5597,5490 5600,5541 5591,5588 5583,5634 5590,5822 5607,6005 5625,6188 5637,6415 5634,6511 5627,6724 5694,6974 5805,7147 5848,7214 5877,7276 5869,7284 5846,7307 5686,7038 5644,6906 5585,6723 5558,6469 5530,5868 5516,5569 5499,5319 5493,5312 5486,5305 5480,5335 5480,5378 5480,5427 5469,5454 5450,5451 5427,5446 5414,5529 5402,5754 5392,5925 5372,6215 5357,6399 5342,6583 5324,6935 5316,7180 5309,7426 5297,7635 5290,7646 5281,7661 5240,8625 5228,9103 5228,9123 5211,9330 5191,9562 5160,9930 5152,10839 5180,10839 5186,10839 5225,10813 5267,10781 Z"/>
       </g>
      </g>
      <g class="com.sun.star.drawing.ClosedBezierShape">
       <g id="id59">
        <rect class="BoundingBox" stroke="none" fill="none" x="5538" y="8789" width="15" height="232"/>
        <path fill="rgb(0,0,0)" stroke="none" d="M 5538,8904 C 5538,8801 5543,8759 5548,8811 5553,8862 5553,8945 5548,8997 5543,9048 5538,9006 5538,8904 Z"/>
       </g>
      </g>
      <g class="com.sun.star.drawing.ClosedBezierShape">
       <g id="id60">
        <rect class="BoundingBox" stroke="none" fill="none" x="5534" y="7633" width="67" height="988"/>
        <path fill="rgb(0,0,0)" stroke="none" d="M 5534,8234 C 5532,7678 5560,7457 5590,7788 5611,8027 5596,8445 5559,8594 5541,8670 5535,8585 5534,8234 Z"/>
       </g>
      </g>
      <g class="com.sun.star.drawing.ClosedBezierShape">
       <g id="id61">
        <rect class="BoundingBox" stroke="none" fill="none" x="5559" y="8023" width="18" height="94"/>
        <path fill="rgb(0,0,0)" stroke="none" d="M 5571,8029 C 5564,8012 5559,8032 5559,8073 5560,8114 5565,8127 5571,8103 5578,8079 5577,8046 5571,8029 Z"/>
       </g>
      </g>
      <g class="com.sun.star.drawing.ClosedBezierShape">
       <g id="id62">
        <rect class="BoundingBox" stroke="none" fill="none" x="5902" y="5345" width="494" height="2661"/>
        <path fill="rgb(0,0,0)" stroke="none" d="M 5902,7996 C 5902,7981 5919,7954 5941,7936 6169,7746 6283,7196 6361,5916 L 6395,5345 6384,5854 C 6371,6454 6317,7051 6248,7334 6221,7446 6199,7560 6199,7589 6199,7662 5904,8067 5902,7996 Z"/>
       </g>
      </g>
      <g class="com.sun.star.drawing.ClosedBezierShape">
       <g id="id63">
        <rect class="BoundingBox" stroke="none" fill="none" x="5661" y="5693" width="310" height="1745"/>
        <path fill="rgb(0,0,0)" stroke="none" d="M 5928,7223 C 5913,7104 5889,6945 5876,6870 5863,6795 5841,6656 5827,6562 5813,6467 5796,6383 5791,6374 5769,6338 5652,5725 5662,5697 5667,5680 5685,5734 5701,5816 5717,5898 5741,6026 5756,6101 5771,6176 5808,6321 5839,6423 5871,6526 5908,6715 5923,6845 5983,7364 5987,7665 5928,7223 Z"/>
       </g>
      </g>
      <g class="com.sun.star.drawing.ClosedBezierShape">
       <g id="id64">
        <rect class="BoundingBox" stroke="none" fill="none" x="6240" y="10480" width="202" height="85"/>
        <path fill="rgb(128,0,128)" stroke="none" d="M 6385,10516 C 6441,10488 6457,10474 6422,10482 6327,10506 6207,10561 6249,10563 6269,10564 6331,10542 6385,10516 Z"/>
       </g>
      </g>
      <g class="com.sun.star.drawing.ClosedBezierShape">
       <g id="id65">
        <rect class="BoundingBox" stroke="none" fill="none" x="4741" y="9611" width="18" height="94"/>
        <path fill="rgb(128,0,128)" stroke="none" d="M 4752,9617 C 4745,9601 4740,9620 4741,9661 4741,9702 4747,9716 4753,9692 4759,9668 4759,9634 4752,9617 Z"/>
       </g>
      </g>
      <g class="com.sun.star.drawing.ClosedBezierShape">
       <g id="id66">
        <rect class="BoundingBox" stroke="none" fill="none" x="6850" y="9520" width="17" height="109"/>
        <path fill="rgb(128,0,128)" stroke="none" d="M 6861,9530 C 6855,9506 6850,9526 6850,9573 6850,9621 6855,9641 6861,9617 6867,9593 6867,9554 6861,9530 Z"/>
       </g>
      </g>
      <g class="com.sun.star.drawing.ClosedBezierShape">
       <g id="id67">
        <rect class="BoundingBox" stroke="none" fill="none" x="3797" y="8549" width="68" height="190"/>
        <path fill="rgb(0,0,0)" stroke="none" d="M 3864,8556 C 3864,8536 3849,8558 3831,8606 3812,8654 3797,8710 3797,8730 3797,8750 3812,8728 3831,8680 3849,8633 3864,8577 3864,8556 Z"/>
       </g>
      </g>
      <g class="com.sun.star.drawing.ClosedBezierShape">
       <g id="id68">
        <rect class="BoundingBox" stroke="none" fill="none" x="4068" y="7672" width="48" height="120"/>
        <path fill="rgb(0,0,0)" stroke="none" d="M 4114,7694 C 4115,7676 4105,7668 4091,7677 4078,7685 4067,7722 4068,7759 4070,7829 4110,7773 4114,7694 Z"/>
       </g>
      </g>
      <g class="com.sun.star.drawing.ClosedBezierShape">
       <g id="id69">
        <rect class="BoundingBox" stroke="none" fill="none" x="5189" y="6371" width="17" height="124"/>
        <path fill="rgb(0,0,0)" stroke="none" d="M 5200,6380 C 5193,6356 5189,6381 5189,6436 5189,6490 5194,6510 5200,6479 5206,6448 5206,6403 5200,6380 Z"/>
       </g>
      </g>
      <g class="com.sun.star.drawing.ClosedBezierShape">
       <g id="id70">
        <rect class="BoundingBox" stroke="none" fill="none" x="3249" y="5761" width="99" height="239"/>
        <path fill="rgb(0,0,0)" stroke="none" d="M 3315,5884 C 3333,5833 3347,5781 3347,5767 3346,5728 3249,5933 3249,5974 3249,6029 3279,5989 3315,5884 Z"/>
       </g>
      </g>
      <g class="com.sun.star.drawing.ClosedBezierShape">
       <g id="id71">
        <rect class="BoundingBox" stroke="none" fill="none" x="5546" y="4533" width="935" height="867"/>
        <path fill="rgb(128,0,128)" stroke="none" d="M 6076,5325 C 6123,5324 6190,5302 6224,5276 6259,5249 6322,5213 6366,5195 6733,5042 6126,4412 5748,4553 5567,4620 5529,4643 5552,4672 5623,4759 5728,4998 5728,5070 5728,5116 5741,5209 5757,5276 L 5785,5398 5887,5363 C 5943,5343 6028,5326 6076,5325 Z"/>
       </g>
      </g>
      <g class="com.sun.star.drawing.ClosedBezierShape">
       <g id="id72">
        <rect class="BoundingBox" stroke="none" fill="none" x="5108" y="4681" width="556" height="643"/>
        <path fill="rgb(255,255,215)" stroke="none" d="M 5432,5263 C 5433,5195 5520,5110 5588,5110 5711,5110 5680,4984 5510,4790 L 5415,4682 5330,4725 C 5220,4780 5108,4885 5108,4933 5108,4959 5125,4954 5170,4911 5244,4842 5253,4878 5185,4965 5153,5005 5144,5038 5158,5061 5170,5080 5184,5090 5189,5084 5194,5078 5217,5042 5240,5004 5264,4967 5294,4936 5309,4936 5323,4936 5312,4974 5284,5019 5230,5107 5216,5220 5256,5245 5269,5253 5302,5207 5330,5144 5386,5018 5423,5003 5377,5125 5346,5206 5368,5344 5407,5320 5420,5312 5431,5286 5432,5263 Z"/>
       </g>
      </g>
      <g class="com.sun.star.drawing.ClosedBezierShape">
       <g id="id73">
        <rect class="BoundingBox" stroke="none" fill="none" x="5631" y="5184" width="70" height="139"/>
        <path fill="rgb(0,0,0)" stroke="none" d="M 5690,5249 C 5681,5213 5663,5184 5651,5184 5623,5184 5623,5194 5658,5270 5694,5348 5712,5336 5690,5249 Z"/>
       </g>
      </g>
      <g class="com.sun.star.drawing.ClosedBezierShape">
       <g id="id74">
        <rect class="BoundingBox" stroke="none" fill="none" x="1556" y="4217" width="915" height="1038"/>
        <path fill="rgb(128,0,128)" stroke="none" d="M 2185,5177 C 2403,4982 2559,4448 2412,4397 2091,4286 2013,4263 1959,4264 1910,4265 1905,4261 1934,4242 1966,4221 1965,4217 1929,4217 1902,4217 1880,4242 1871,4285 1822,4519 1801,4584 1750,4651 1719,4692 1678,4767 1660,4818 1641,4869 1619,4911 1610,4911 1470,4911 1624,5083 1831,5158 1908,5186 1988,5219 2009,5232 2067,5269 2090,5262 2185,5177 Z"/>
       </g>
      </g>
      <g class="com.sun.star.drawing.ClosedBezierShape">
       <g id="id75">
        <rect class="BoundingBox" stroke="none" fill="none" x="6482" y="4815" width="229" height="347"/>
        <path fill="rgb(191,0,65)" stroke="none" d="M 6648,4999 C 6663,4943 6687,4884 6701,4867 6721,4843 6706,4836 6639,4836 6590,4836 6533,4829 6511,4820 6477,4807 6475,4815 6497,4872 6511,4908 6522,4995 6522,5064 6522,5219 6600,5179 6648,4999 Z"/>
       </g>
      </g>
      <g class="com.sun.star.drawing.ClosedBezierShape">
       <g id="id76">
        <rect class="BoundingBox" stroke="none" fill="none" x="2441" y="2398" width="3455" height="2637"/>
        <path fill="rgb(128,0,128)" stroke="none" d="M 3012,4984 C 3106,4936 3248,4714 3248,4613 3248,4599 3270,4524 3297,4447 3325,4370 3359,4240 3373,4159 3406,3981 3504,3750 3557,3730 3585,3719 3595,3683 3593,3600 L 3590,3485 3566,3590 C 3553,3648 3533,3696 3522,3696 3511,3696 3512,3648 3525,3590 3539,3532 3543,3431 3534,3365 3524,3284 3527,3250 3545,3261 3559,3270 3571,3301 3571,3331 3572,3361 3587,3406 3606,3430 3627,3459 3635,3510 3627,3570 3613,3676 3694,3985 3783,4167 3813,4228 3852,4314 3870,4357 L 3903,4434 4189,4424 C 4347,4418 4548,4398 4637,4379 4726,4359 4860,4337 4935,4329 5202,4301 5198,4304 5200,4166 5202,4052 5212,4032 5345,3889 5543,3674 5587,3567 5576,3318 5568,3145 5570,3129 5597,3191 5633,3277 5638,3544 5605,3632 5579,3699 5600,3715 5648,3667 5664,3651 5726,3640 5786,3642 L 5895,3646 5839,3528 C 5789,3423 5751,3303 5640,2896 5585,2699 5384,2438 5378,2558 5377,2593 5366,2574 5352,2510 5318,2359 5215,2363 5227,2514 5232,2575 5221,2625 5196,2653 5151,2703 5167,2768 5243,2836 5293,2880 5293,2881 5245,2865 5157,2836 5147,2839 5139,2892 5134,2920 5148,2958 5169,2975 5190,2993 5207,3019 5207,3033 5207,3047 5187,3040 5162,3017 5083,2946 4974,3099 5011,3229 5033,3308 4987,3366 4939,3318 4923,3302 4910,3276 4910,3259 4910,3219 4858,3202 4778,3217 4724,3228 4711,3244 4711,3300 4711,3339 4699,3378 4684,3388 4664,3399 4659,3377 4666,3315 4677,3218 4651,3202 4561,3250 4535,3264 4513,3268 4513,3259 4513,3224 4602,3176 4668,3176 4820,3174 4609,2977 4293,2826 4170,2766 4034,2677 3956,2603 3885,2536 3816,2481 3804,2481 3791,2482 3799,2496 3821,2512 3843,2529 3870,2570 3880,2604 3891,2638 3943,2707 3995,2756 4048,2806 4091,2858 4091,2873 4091,2889 4107,2902 4126,2902 4145,2902 4167,2918 4174,2938 4182,2957 4229,2977 4280,2981 4425,2993 4407,3039 4259,3037 4158,3035 4127,3025 4121,2993 4111,2942 4093,2941 4026,2988 3989,3014 3977,3042 3986,3087 3994,3127 3987,3150 3967,3150 3945,3150 3941,3122 3952,3051 3969,2943 3954,2927 3903,2995 3885,3019 3869,3025 3869,3009 3867,2952 3945,2898 3982,2929 4009,2951 4020,2948 4032,2917 4048,2874 3952,2754 3899,2754 3882,2753 3868,2736 3868,2716 3868,2672 3811,2668 3740,2706 3700,2727 3691,2726 3700,2700 3706,2682 3738,2661 3771,2653 3804,2646 3831,2623 3831,2603 3831,2565 3763,2560 3688,2591 3620,2620 3638,2566 3707,2534 3800,2492 3787,2431 3685,2431 3354,2431 3791,3278 4170,3372 4229,3387 4361,3426 4463,3458 4965,3620 5312,3373 5351,2825 5363,2650 5408,2578 5456,2655 5505,2734 5462,3076 5404,3076 5392,3076 5389,3060 5396,3041 5403,3022 5399,3000 5386,2992 5373,2984 5355,3011 5347,3053 5339,3095 5307,3164 5277,3206 5240,3259 5232,3286 5252,3293 5269,3298 5281,3327 5281,3357 5280,3410 5280,3410 5248,3353 5208,3281 5152,3331 5174,3418 5183,3452 5177,3472 5158,3472 5140,3472 5134,3489 5143,3513 5161,3558 5114,3628 5081,3607 5068,3600 5065,3566 5074,3533 5086,3483 5081,3475 5047,3488 5021,3498 5010,3522 5017,3550 5024,3576 5019,3603 5007,3610 4994,3618 4984,3601 4984,3572 4984,3543 4973,3526 4959,3534 4946,3543 4935,3571 4935,3596 4935,3621 4923,3646 4909,3651 4873,3662 4841,3919 4849,4127 4853,4235 4847,4286 4833,4264 4799,4209 4807,3836 4846,3726 4882,3623 4864,3572 4792,3572 4767,3572 4765,3583 4787,3623 4820,3684 4808,3703 4752,3681 4730,3673 4711,3644 4711,3619 4711,3593 4703,3572 4693,3571 4683,3571 4646,3565 4612,3557 4568,3547 4560,3549 4584,3567 4622,3594 4598,3656 4559,3632 4546,3623 4525,3592 4514,3561 4490,3499 4337,3442 4172,3435 4061,3430 4047,3442 4098,3495 4123,3521 4119,3525 4079,3518 4051,3513 4028,3488 4026,3460 4024,3433 4021,3391 4020,3367 4016,3308 3974,3312 3955,3373 3936,3432 3868,3440 3868,3384 3868,3363 3877,3351 3889,3358 3935,3387 3897,3264 3835,3186 3799,3141 3769,3093 3769,3080 3769,3012 3629,2883 3599,2923 3573,2958 3570,2955 3582,2898 3599,2813 3558,2704 3509,2704 3488,2704 3471,2694 3471,2681 3471,2629 3380,2688 3349,2761 3330,2805 3288,2896 3256,2963 3224,3031 3198,3106 3198,3131 3198,3157 3173,3225 3141,3282 2931,3668 2682,4455 2730,4583 2770,4687 2759,4764 2716,4688 2690,4643 2680,4637 2679,4668 2679,4691 2666,4718 2651,4727 2632,4739 2626,4710 2632,4633 2640,4538 2635,4524 2598,4534 2558,4544 2544,4576 2483,4812 2471,4860 2453,4917 2444,4938 2404,5036 2838,5070 3012,4984 Z"/>
       </g>
      </g>
      <g class="com.sun.star.drawing.ClosedBezierShape">
       <g id="id77">
        <rect class="BoundingBox" stroke="none" fill="none" x="4885" y="3673" width="86" height="625"/>
        <path fill="rgb(0,0,0)" stroke="none" d="M 4901,4274 C 4880,4253 4880,3852 4900,3748 4928,3608 4947,3667 4947,3900 4947,4026 4955,4166 4965,4210 4982,4288 4949,4322 4901,4274 Z"/>
       </g>
      </g>
      <g class="com.sun.star.drawing.ClosedBezierShape">
       <g id="id78">
        <rect class="BoundingBox" stroke="none" fill="none" x="4374" y="3530" width="85" height="92"/>
        <path fill="rgb(0,0,0)" stroke="none" d="M 4380,3601 C 4357,3563 4410,3508 4441,3539 4457,3554 4462,3579 4453,3594 4433,3626 4398,3629 4380,3601 Z"/>
       </g>
      </g>
      <g class="com.sun.star.drawing.ClosedBezierShape">
       <g id="id79">
        <rect class="BoundingBox" stroke="none" fill="none" x="4218" y="3466" width="60" height="104"/>
        <path fill="rgb(0,0,0)" stroke="none" d="M 4220,3519 C 4225,3486 4240,3463 4253,3466 4290,3475 4283,3553 4245,3566 4222,3574 4215,3559 4220,3519 Z"/>
       </g>
      </g>
      <g class="com.sun.star.drawing.ClosedBezierShape">
       <g id="id80">
        <rect class="BoundingBox" stroke="none" fill="none" x="4549" y="3285" width="62" height="160"/>
        <path fill="rgb(0,0,0)" stroke="none" d="M 4579,3420 C 4573,3401 4562,3366 4554,3343 4547,3320 4550,3294 4562,3287 4587,3272 4626,3418 4603,3441 4596,3448 4585,3439 4579,3420 Z"/>
       </g>
      </g>
      <g class="com.sun.star.drawing.ClosedBezierShape">
       <g id="id81">
        <rect class="BoundingBox" stroke="none" fill="none" x="4173" y="3051" width="390" height="322"/>
        <path fill="rgb(0,0,0)" stroke="none" d="M 4456,3356 C 4429,3328 4438,3186 4469,3155 4515,3108 4481,3098 4391,3131 4325,3155 4306,3155 4297,3131 4291,3114 4272,3100 4254,3100 4235,3100 4216,3114 4210,3131 4203,3148 4190,3154 4179,3144 4168,3134 4174,3109 4191,3088 4226,3046 4340,3036 4340,3075 4340,3090 4359,3089 4388,3071 4426,3047 4447,3049 4499,3083 4571,3130 4584,3174 4526,3174 4489,3174 4478,3214 4486,3317 4491,3375 4484,3384 4456,3356 Z"/>
       </g>
      </g>
      <g class="com.sun.star.drawing.ClosedBezierShape">
       <g id="id82">
        <rect class="BoundingBox" stroke="none" fill="none" x="4839" y="3289" width="69" height="85"/>
        <path fill="rgb(0,0,0)" stroke="none" d="M 4906,3332 C 4910,3357 4898,3373 4873,3373 4847,3373 4835,3357 4840,3330 4851,3275 4895,3276 4906,3332 Z"/>
       </g>
      </g>
      <g class="com.sun.star.drawing.ClosedBezierShape">
       <g id="id83">
        <rect class="BoundingBox" stroke="none" fill="none" x="4241" y="3200" width="100" height="123"/>
        <path fill="rgb(0,0,0)" stroke="none" d="M 4270,3294 C 4254,3278 4241,3247 4241,3226 4241,3192 4244,3192 4266,3225 4287,3258 4293,3258 4314,3225 4334,3195 4339,3202 4339,3256 4340,3329 4317,3341 4270,3294 Z"/>
       </g>
      </g>
      <g class="com.sun.star.drawing.ClosedBezierShape">
       <g id="id84">
        <rect class="BoundingBox" stroke="none" fill="none" x="3732" y="3192" width="100" height="107"/>
        <path fill="rgb(0,0,0)" stroke="none" d="M 3736,3265 C 3717,3213 3770,3170 3811,3204 3836,3224 3837,3240 3816,3265 3780,3308 3753,3308 3736,3265 Z"/>
       </g>
      </g>
      <g class="com.sun.star.drawing.ClosedBezierShape">
       <g id="id85">
        <rect class="BoundingBox" stroke="none" fill="none" x="5282" y="3150" width="116" height="125"/>
        <path fill="rgb(0,0,0)" stroke="none" d="M 5282,3249 C 5282,3236 5293,3225 5307,3225 5320,3225 5332,3208 5332,3187 5332,3167 5342,3150 5355,3150 5396,3150 5411,3201 5380,3238 5346,3279 5282,3287 5282,3249 Z"/>
       </g>
      </g>
      <g class="com.sun.star.drawing.ClosedBezierShape">
       <g id="id86">
        <rect class="BoundingBox" stroke="none" fill="none" x="5045" y="3101" width="139" height="122"/>
        <path fill="rgb(0,0,0)" stroke="none" d="M 5086,3160 C 5053,3127 5037,3101 5049,3101 5085,3101 5183,3175 5183,3201 5183,3238 5151,3224 5086,3160 Z"/>
       </g>
      </g>
      <g class="com.sun.star.drawing.ClosedBezierShape">
       <g id="id87">
        <rect class="BoundingBox" stroke="none" fill="none" x="3620" y="3027" width="71" height="99"/>
        <path fill="rgb(0,0,0)" stroke="none" d="M 3620,3089 C 3620,3052 3665,3013 3684,3032 3702,3050 3668,3125 3642,3125 3630,3125 3620,3109 3620,3089 Z"/>
       </g>
      </g>
      <g class="com.sun.star.drawing.ClosedBezierShape">
       <g id="id88">
        <rect class="BoundingBox" stroke="none" fill="none" x="3745" y="2809" width="199" height="79"/>
        <path fill="rgb(0,0,0)" stroke="none" d="M 3775,2883 C 3726,2865 3739,2839 3800,2837 3831,2836 3875,2826 3899,2815 3926,2804 3943,2807 3943,2824 3943,2839 3923,2851 3898,2851 3873,2851 3843,2861 3830,2873 3817,2885 3792,2890 3775,2883 Z"/>
       </g>
      </g>
      <g class="com.sun.star.drawing.ClosedBezierShape">
       <g id="id89">
        <rect class="BoundingBox" stroke="none" fill="none" x="3456" y="2753" width="82" height="51"/>
        <path fill="rgb(0,0,0)" stroke="none" d="M 3459,2778 C 3467,2764 3491,2753 3511,2753 3532,2753 3542,2764 3533,2778 3525,2792 3501,2803 3481,2803 3460,2803 3450,2792 3459,2778 Z"/>
       </g>
      </g>
      <g class="com.sun.star.drawing.ClosedBezierShape">
       <g id="id90">
        <rect class="BoundingBox" stroke="none" fill="none" x="1521" y="4637" width="119" height="300"/>
        <path fill="rgb(0,0,0)" stroke="none" d="M 1563,4879 C 1563,4848 1584,4787 1611,4743 1656,4670 1644,4614 1590,4648 1544,4676 1497,4935 1538,4935 1551,4935 1562,4910 1563,4879 Z"/>
       </g>
      </g>
      <g class="com.sun.star.drawing.ClosedBezierShape">
       <g id="id91">
        <rect class="BoundingBox" stroke="none" fill="none" x="3717" y="4489" width="324" height="308"/>
        <path fill="rgb(255,255,0)" stroke="none" d="M 4037,4635 L 4029,4489 3873,4489 3717,4489 3724,4632 3732,4775 3856,4788 C 4039,4807 4045,4802 4037,4635 Z"/>
       </g>
      </g>
      <g class="com.sun.star.drawing.ClosedBezierShape">
       <g id="id92">
        <rect class="BoundingBox" stroke="none" fill="none" x="3951" y="4697" width="58" height="56"/>
        <path fill="rgb(0,0,0)" stroke="none" d="M 3956,4739 C 3948,4726 3952,4708 3965,4700 3978,4693 3995,4697 4003,4709 4011,4722 4007,4739 3994,4747 3981,4755 3964,4751 3956,4739 Z"/>
       </g>
      </g>
      <g class="com.sun.star.drawing.ClosedBezierShape">
       <g id="id93">
        <rect class="BoundingBox" stroke="none" fill="none" x="3773" y="4666" width="71" height="62"/>
        <path fill="rgb(0,0,0)" stroke="none" d="M 3775,4707 C 3787,4670 3843,4649 3843,4682 3843,4695 3826,4713 3804,4721 3780,4731 3768,4725 3775,4707 Z"/>
       </g>
      </g>
      <g class="com.sun.star.drawing.ClosedBezierShape">
       <g id="id94">
        <rect class="BoundingBox" stroke="none" fill="none" x="3878" y="4598" width="66" height="65"/>
        <path fill="rgb(0,0,0)" stroke="none" d="M 3885,4646 C 3877,4637 3875,4620 3883,4609 3899,4583 3942,4605 3942,4639 3942,4665 3909,4670 3885,4646 Z"/>
       </g>
      </g>
      <g class="com.sun.star.drawing.ClosedBezierShape">
       <g id="id95">
        <rect class="BoundingBox" stroke="none" fill="none" x="3768" y="4539" width="51" height="66"/>
        <path fill="rgb(0,0,0)" stroke="none" d="M 3769,4578 C 3769,4556 3780,4539 3794,4539 3807,4539 3818,4549 3818,4562 3818,4575 3807,4592 3794,4601 3780,4609 3769,4599 3769,4578 Z"/>
       </g>
      </g>
      <g class="com.sun.star.drawing.ClosedBezierShape">
       <g id="id96">
        <rect class="BoundingBox" stroke="none" fill="none" x="3942" y="4522" width="51" height="67"/>
        <path fill="rgb(0,0,0)" stroke="none" d="M 3942,4550 C 3942,4529 3954,4518 3967,4526 3981,4535 3992,4552 3992,4565 3992,4578 3981,4588 3967,4588 3954,4588 3942,4571 3942,4550 Z"/>
       </g>
      </g>
      <g class="com.sun.star.drawing.ClosedBezierShape">
       <g id="id97">
        <rect class="BoundingBox" stroke="none" fill="none" x="4076" y="4471" width="409" height="317"/>
        <path fill="rgb(255,255,0)" stroke="none" d="M 4479,4731 C 4471,4700 4464,4629 4464,4573 L 4463,4471 4290,4475 C 4079,4480 4064,4493 4084,4657 L 4099,4787 4296,4787 C 4489,4787 4494,4786 4479,4731 Z"/>
       </g>
      </g>
      <g class="com.sun.star.drawing.ClosedBezierShape">
       <g id="id98">
        <rect class="BoundingBox" stroke="none" fill="none" x="4199" y="4712" width="68" height="51"/>
        <path fill="rgb(0,0,0)" stroke="none" d="M 4203,4737 C 4194,4724 4205,4712 4226,4712 4248,4712 4265,4724 4265,4737 4265,4751 4255,4762 4242,4762 4230,4762 4211,4751 4203,4737 Z"/>
       </g>
      </g>
      <g class="com.sun.star.drawing.ClosedBezierShape">
       <g id="id99">
        <rect class="BoundingBox" stroke="none" fill="none" x="4373" y="4696" width="58" height="58"/>
        <path fill="rgb(0,0,0)" stroke="none" d="M 4378,4739 C 4370,4726 4374,4709 4387,4701 4400,4693 4417,4697 4425,4710 4433,4723 4429,4740 4416,4748 4403,4756 4386,4752 4378,4739 Z"/>
       </g>
      </g>
      <g class="com.sun.star.drawing.ClosedBezierShape">
       <g id="id100">
        <rect class="BoundingBox" stroke="none" fill="none" x="4290" y="4613" width="75" height="51"/>
        <path fill="rgb(0,0,0)" stroke="none" d="M 4290,4638 C 4290,4624 4306,4613 4327,4613 4347,4613 4364,4624 4364,4638 4364,4652 4347,4663 4327,4663 4306,4663 4290,4652 4290,4638 Z"/>
       </g>
      </g>
      <g class="com.sun.star.drawing.ClosedBezierShape">
       <g id="id101">
        <rect class="BoundingBox" stroke="none" fill="none" x="4170" y="4566" width="64" height="63"/>
        <path fill="rgb(0,0,0)" stroke="none" d="M 4219,4581 C 4237,4599 4237,4613 4220,4623 4206,4632 4187,4627 4178,4612 4155,4574 4187,4549 4219,4581 Z"/>
       </g>
      </g>
      <g class="com.sun.star.drawing.ClosedBezierShape">
       <g id="id102">
        <rect class="BoundingBox" stroke="none" fill="none" x="4373" y="4523" width="58" height="58"/>
        <path fill="rgb(0,0,0)" stroke="none" d="M 4378,4566 C 4370,4553 4374,4536 4387,4528 4400,4520 4417,4524 4425,4537 4433,4550 4429,4567 4416,4575 4403,4583 4386,4579 4378,4566 Z"/>
       </g>
      </g>
      <g class="com.sun.star.drawing.ClosedBezierShape">
       <g id="id103">
        <rect class="BoundingBox" stroke="none" fill="none" x="4516" y="4404" width="426" height="391"/>
        <path fill="rgb(255,255,0)" stroke="none" d="M 4844,4746 L 4940,4731 4930,4585 C 4916,4394 4904,4385 4714,4420 4529,4455 4497,4497 4524,4676 L 4542,4793 4645,4777 C 4702,4769 4792,4755 4844,4746 Z"/>
       </g>
      </g>
      <g class="com.sun.star.drawing.ClosedBezierShape">
       <g id="id104">
        <rect class="BoundingBox" stroke="none" fill="none" x="4587" y="4646" width="51" height="67"/>
        <path fill="rgb(0,0,0)" stroke="none" d="M 4587,4689 C 4587,4676 4599,4659 4612,4650 4626,4642 4637,4653 4637,4674 4637,4695 4626,4712 4612,4712 4599,4712 4587,4702 4587,4689 Z"/>
       </g>
      </g>
      <g class="com.sun.star.drawing.ClosedBezierShape">
       <g id="id105">
        <rect class="BoundingBox" stroke="none" fill="none" x="4810" y="4597" width="51" height="82"/>
        <path fill="rgb(0,0,0)" stroke="none" d="M 4811,4652 C 4811,4632 4822,4608 4835,4600 4849,4591 4860,4601 4860,4622 4860,4642 4849,4666 4835,4674 4822,4683 4811,4673 4811,4652 Z"/>
       </g>
      </g>
      <g class="com.sun.star.drawing.ClosedBezierShape">
       <g id="id106">
        <rect class="BoundingBox" stroke="none" fill="none" x="4687" y="4564" width="76" height="66"/>
        <path fill="rgb(0,0,0)" stroke="none" d="M 4703,4621 C 4675,4593 4686,4564 4725,4564 4745,4564 4762,4574 4762,4587 4762,4618 4723,4641 4703,4621 Z"/>
       </g>
      </g>
      <g class="com.sun.star.drawing.ClosedBezierShape">
       <g id="id107">
        <rect class="BoundingBox" stroke="none" fill="none" x="4563" y="4489" width="66" height="51"/>
        <path fill="rgb(0,0,0)" stroke="none" d="M 4563,4514 C 4563,4500 4580,4489 4601,4489 4623,4489 4633,4500 4625,4514 4616,4528 4599,4539 4586,4539 4573,4539 4563,4528 4563,4514 Z"/>
       </g>
      </g>
      <g class="com.sun.star.drawing.ClosedBezierShape">
       <g id="id108">
        <rect class="BoundingBox" stroke="none" fill="none" x="4786" y="4439" width="66" height="51"/>
        <path fill="rgb(0,0,0)" stroke="none" d="M 4786,4464 C 4786,4451 4796,4440 4809,4440 4822,4440 4840,4451 4848,4464 4856,4478 4846,4489 4825,4489 4803,4489 4786,4478 4786,4464 Z"/>
       </g>
      </g>
      <g class="com.sun.star.drawing.ClosedBezierShape">
       <g id="id109">
        <rect class="BoundingBox" stroke="none" fill="none" x="5257" y="3648" width="1623" height="1118"/>
        <path fill="rgb(191,0,65)" stroke="none" d="M 6817,4684 C 6832,4641 6845,4554 6846,4492 6846,4429 6856,4328 6868,4267 6901,4095 6858,4000 6696,3888 6621,3836 6518,3765 6468,3730 6305,3616 6194,3621 6103,3746 6061,3804 6026,3838 6026,3821 6026,3804 6049,3761 6077,3725 6138,3648 6113,3633 5984,3669 5932,3683 5837,3695 5773,3695 5565,3696 5225,4024 5259,4192 5290,4341 5397,4601 5427,4598 5443,4597 5478,4594 5505,4592 5597,4585 5496,4241 5402,4241 5346,4241 5352,4183 5410,4172 5446,4165 5496,4245 5557,4410 5605,4540 5682,4343 5742,3937 5760,3814 5795,3766 5827,3819 5848,3852 5833,3940 5799,3983 5673,4145 5660,4531 5782,4494 5828,4480 5965,4462 6088,4453 6673,4414 6733,4387 6703,4173 6691,4083 6695,4063 6723,4072 6742,4079 6759,4100 6760,4119 6765,4194 6772,4203 6795,4167 6815,4136 6819,4138 6819,4179 6818,4256 6711,4412 6613,4479 6521,4542 6424,4564 6503,4505 6538,4478 6512,4474 6341,4483 6085,4496 6071,4500 6163,4540 6203,4558 6260,4593 6288,4618 6472,4779 6771,4816 6817,4684 Z"/>
       </g>
      </g>
      <g class="com.sun.star.drawing.ClosedBezierShape">
       <g id="id110">
        <rect class="BoundingBox" stroke="none" fill="none" x="5708" y="3918" width="479" height="496"/>
        <path fill="rgb(0,0,0)" stroke="none" d="M 5776,4344 C 5961,4199 6127,4031 6141,3976 6160,3901 6199,3899 6182,3974 6157,4083 6090,4216 6065,4208 6051,4203 5974,4247 5894,4306 5736,4422 5636,4454 5776,4344 Z"/>
       </g>
      </g>
      <g class="com.sun.star.drawing.ClosedBezierShape">
       <g id="id111">
        <rect class="BoundingBox" stroke="none" fill="none" x="6125" y="3854" width="317" height="564"/>
        <path fill="rgb(0,0,0)" stroke="none" d="M 6125,4399 C 6125,4390 6152,4363 6185,4337 6330,4223 6470,3893 6373,3893 6360,3893 6349,3879 6349,3863 6349,3846 6372,3856 6401,3885 6460,3943 6452,4083 6388,4148 6370,4166 6337,4216 6315,4258 6265,4355 6125,4459 6125,4399 Z"/>
       </g>
      </g>
      <g class="com.sun.star.drawing.ClosedBezierShape">
       <g id="id112">
        <rect class="BoundingBox" stroke="none" fill="none" x="4963" y="4343" width="386" height="375"/>
        <path fill="rgb(255,255,0)" stroke="none" d="M 5261,4679 C 5353,4674 5368,4650 5321,4584 5299,4552 5269,4483 5255,4430 5230,4337 5227,4335 5138,4350 5087,4358 5026,4365 5000,4365 4961,4365 4957,4377 4971,4446 4981,4490 4991,4569 4993,4622 L 4997,4717 5096,4700 C 5151,4691 5225,4681 5261,4679 Z"/>
       </g>
      </g>
      <g class="com.sun.star.drawing.ClosedBezierShape">
       <g id="id113">
        <rect class="BoundingBox" stroke="none" fill="none" x="5094" y="4567" width="62" height="64"/>
        <path fill="rgb(0,0,0)" stroke="none" d="M 5110,4575 C 5148,4552 5172,4584 5141,4616 5123,4634 5109,4634 5098,4617 5090,4603 5095,4584 5110,4575 Z"/>
       </g>
      </g>
      <g class="com.sun.star.drawing.ClosedBezierShape">
       <g id="id114">
        <rect class="BoundingBox" stroke="none" fill="none" x="5217" y="4549" width="54" height="65"/>
        <path fill="rgb(0,0,0)" stroke="none" d="M 5221,4590 C 5213,4577 5217,4561 5229,4553 5242,4545 5258,4556 5266,4576 5282,4616 5244,4628 5221,4590 Z"/>
       </g>
      </g>
      <g class="com.sun.star.drawing.ClosedBezierShape">
       <g id="id115">
        <rect class="BoundingBox" stroke="none" fill="none" x="5133" y="4464" width="76" height="51"/>
        <path fill="rgb(0,0,0)" stroke="none" d="M 5133,4489 C 5133,4476 5150,4464 5170,4464 5191,4464 5208,4476 5208,4489 5208,4503 5191,4514 5170,4514 5150,4514 5133,4503 5133,4489 Z"/>
       </g>
      </g>
      <g class="com.sun.star.drawing.ClosedBezierShape">
       <g id="id116">
        <rect class="BoundingBox" stroke="none" fill="none" x="5037" y="4418" width="63" height="72"/>
        <path fill="rgb(0,0,0)" stroke="none" d="M 5041,4460 C 5046,4444 5064,4426 5080,4420 5098,4414 5104,4426 5094,4450 5077,4495 5026,4504 5041,4460 Z"/>
       </g>
      </g>
      <g class="com.sun.star.drawing.ClosedBezierShape">
       <g id="id117">
        <rect class="BoundingBox" stroke="none" fill="none" x="5142" y="4369" width="67" height="57"/>
        <path fill="rgb(0,0,0)" stroke="none" d="M 5162,4417 C 5137,4402 5135,4392 5157,4378 5191,4357 5217,4376 5204,4412 5199,4427 5181,4429 5162,4417 Z"/>
       </g>
      </g>
      <g class="com.sun.star.drawing.ClosedBezierShape">
       <g id="id118">
        <rect class="BoundingBox" stroke="none" fill="none" x="1198" y="3310" width="608" height="1267"/>
        <path fill="rgb(255,255,215)" stroke="none" d="M 1791,4476 C 1841,4298 1749,3795 1620,3537 1525,3347 1489,3332 1549,3507 1570,3570 1588,3636 1588,3653 1588,3670 1626,3760 1674,3853 1722,3946 1754,4033 1745,4047 1737,4060 1714,4038 1694,3997 1657,3920 1470,3754 1447,3777 1439,3784 1460,3818 1494,3851 1527,3885 1563,3927 1571,3946 1580,3964 1601,3999 1618,4023 1643,4059 1643,4071 1618,4087 1600,4098 1593,4126 1602,4149 1610,4172 1606,4190 1593,4190 1562,4190 1533,4119 1551,4089 1568,4062 1505,3937 1453,3894 1406,3855 1400,3694 1446,3694 1463,3694 1497,3717 1522,3746 1590,3826 1593,3790 1532,3621 1473,3457 1318,3247 1316,3329 1315,3379 1356,3459 1424,3539 1451,3570 1466,3601 1458,3608 1451,3616 1399,3570 1343,3506 1220,3367 1217,3374 1316,3569 1408,3749 1390,3811 1284,3683 1186,3564 1168,3589 1250,3728 1285,3789 1315,3868 1315,3903 1315,3938 1329,3967 1346,3967 1368,3967 1377,4013 1377,4122 1376,4443 1718,4735 1791,4475 L 1791,4476 Z"/>
       </g>
      </g>
      <g class="com.sun.star.drawing.ClosedBezierShape">
       <g id="id119">
        <rect class="BoundingBox" stroke="none" fill="none" x="1438" y="4020" width="72" height="294"/>
        <path fill="rgb(0,0,0)" stroke="none" d="M 1455,4299 C 1424,4267 1439,4101 1477,4053 1514,4007 1515,4008 1498,4067 1489,4101 1482,4171 1484,4222 1488,4317 1484,4328 1455,4299 Z"/>
       </g>
      </g>
      <g class="com.sun.star.drawing.ClosedBezierShape">
       <g id="id120">
        <rect class="BoundingBox" stroke="none" fill="none" x="3744" y="1726" width="387" height="242"/>
        <path fill="rgb(0,0,0)" stroke="none" d="M 3876,1944 C 3869,1925 3852,1909 3839,1909 3795,1909 3744,1839 3744,1778 3744,1719 3748,1718 3862,1740 3927,1752 4003,1756 4032,1749 4070,1740 4091,1753 4113,1800 4135,1850 4135,1859 4110,1844 4065,1815 3794,1813 3794,1841 3794,1854 3811,1859 3831,1851 3854,1842 3868,1851 3868,1876 3868,1908 3888,1912 3978,1899 4040,1889 4093,1893 4102,1906 4110,1919 4095,1924 4067,1917 4039,1909 4017,1915 4017,1928 4017,1969 3891,1982 3876,1944 Z"/>
       </g>
      </g>
      <g class="com.sun.star.drawing.ClosedBezierShape">
       <g id="id121">
        <rect class="BoundingBox" stroke="none" fill="none" x="3897" y="1254" width="43" height="269"/>
        <path fill="rgb(0,0,0)" stroke="none" d="M 3898,1451 C 3900,1286 3936,1173 3938,1327 3939,1395 3930,1473 3918,1500 3901,1538 3897,1527 3898,1451 Z"/>
       </g>
      </g>
      <g class="com.sun.star.drawing.ClosedBezierShape">
       <g id="id122">
        <rect class="BoundingBox" stroke="none" fill="none" x="4153" y="1366" width="231" height="120"/>
        <path fill="rgb(0,0,0)" stroke="none" d="M 4203,1463 C 4122,1442 4141,1430 4244,1437 4286,1440 4320,1425 4335,1397 4349,1372 4369,1360 4379,1370 4397,1388 4320,1490 4292,1485 4284,1483 4244,1473 4203,1463 Z"/>
       </g>
      </g>
      <g class="com.sun.star.drawing.ClosedBezierShape">
       <g id="id123">
        <rect class="BoundingBox" stroke="none" fill="none" x="4084" y="1098" width="326" height="282"/>
        <path fill="rgb(0,0,0)" stroke="none" d="M 4124,1330 C 4054,1250 4068,1241 4243,1257 4402,1271 4421,1253 4331,1169 4287,1128 4254,1118 4189,1128 4123,1138 4115,1136 4153,1118 4319,1039 4502,1226 4354,1323 4245,1395 4182,1397 4124,1330 Z"/>
       </g>
      </g>
      <g class="com.sun.star.drawing.ClosedBezierShape">
       <g id="id124">
        <rect class="BoundingBox" stroke="none" fill="none" x="4240" y="1289" width="67" height="51"/>
        <path fill="rgb(0,0,0)" stroke="none" d="M 4302,1314 C 4311,1301 4300,1289 4279,1289 4258,1289 4240,1300 4240,1314 4240,1327 4251,1339 4264,1339 4276,1339 4294,1328 4302,1314 Z"/>
       </g>
      </g>
      <g class="com.sun.star.drawing.ClosedBezierShape">
       <g id="id125">
        <rect class="BoundingBox" stroke="none" fill="none" x="3995" y="967" width="545" height="198"/>
        <path fill="rgb(0,0,0)" stroke="none" d="M 4490,1122 C 4473,1092 4465,1089 4464,1113 4464,1134 4439,1121 4400,1079 4322,995 4148,1004 4046,1097 3994,1144 3987,1146 4001,1107 4010,1082 4017,1058 4017,1052 4017,1018 4185,967 4300,967 4446,967 4538,1026 4538,1120 4538,1177 4523,1177 4490,1122 Z"/>
       </g>
      </g>
      <g class="com.sun.star.drawing.ClosedBezierShape">
       <g id="id126">
        <rect class="BoundingBox" stroke="none" fill="none" x="5381" y="2678" width="69" height="274"/>
        <path fill="rgb(0,0,0)" stroke="none" d="M 5441,2908 C 5430,2884 5423,2822 5426,2771 5428,2720 5419,2678 5405,2678 5392,2678 5381,2740 5381,2815 5381,2924 5389,2951 5421,2951 5450,2951 5456,2939 5441,2908 Z"/>
       </g>
      </g>
      <g class="com.sun.star.drawing.ClosedBezierShape">
       <g id="id127">
        <rect class="BoundingBox" stroke="none" fill="none" x="4533" y="502" width="357" height="1655"/>
        <path fill="rgb(128,128,128)" stroke="none" d="M 4850,2026 C 4820,1903 4818,1846 4834,1586 4840,1491 4844,1483 4861,1536 4929,1750 4855,1096 4781,834 4749,722 4706,635 4652,576 4552,467 4493,485 4564,602 4590,646 4620,698 4629,719 4638,739 4658,764 4672,773 4686,783 4698,822 4698,860 4699,912 4710,928 4743,922 4767,918 4786,928 4786,945 4786,961 4767,989 4743,1008 4701,1040 4702,1043 4744,1076 4783,1106 4785,1119 4757,1163 4733,1202 4732,1226 4752,1258 4770,1287 4771,1314 4754,1341 4740,1364 4737,1401 4749,1428 4774,1486 4765,1588 4731,1629 4713,1651 4715,1671 4735,1696 4758,1723 4758,1744 4736,1786 4718,1820 4716,1846 4731,1856 4744,1864 4762,1924 4772,1989 4786,2084 4824,2145 4877,2156 4879,2156 4867,2098 4850,2026 Z"/>
       </g>
      </g>
      <g class="com.sun.star.drawing.ClosedBezierShape">
       <g id="id128">
        <rect class="BoundingBox" stroke="none" fill="none" x="4092" y="398" width="236" height="72"/>
        <path fill="rgb(0,0,0)" stroke="none" d="M 4253,435 L 4327,400 4209,398 C 4120,397 4092,406 4092,434 4092,479 4154,480 4253,435 Z"/>
       </g>
      </g>
      <g class="com.sun.star.drawing.ClosedBezierShape">
       <g id="id129">
        <rect class="BoundingBox" stroke="none" fill="none" x="5515" y="2259" width="255" height="173"/>
        <path fill="rgb(0,0,0)" stroke="none" d="M 5701,2389 C 5682,2367 5629,2333 5583,2313 5495,2276 5491,2241 5578,2269 5640,2288 5801,2430 5762,2430 5747,2430 5719,2412 5701,2389 Z"/>
       </g>
      </g>
      <g class="com.sun.star.drawing.ClosedBezierShape">
       <g id="id130">
        <rect class="BoundingBox" stroke="none" fill="none" x="4981" y="2024" width="589" height="107"/>
        <path fill="rgb(0,0,0)" stroke="none" d="M 5419,2090 C 5338,2060 5292,2059 5162,2082 5019,2108 4957,2104 4990,2071 5064,1996 5422,2014 5542,2098 5606,2143 5553,2139 5419,2090 Z"/>
       </g>
      </g>
      <g class="com.sun.star.drawing.ClosedBezierShape">
       <g id="id131">
        <rect class="BoundingBox" stroke="none" fill="none" x="4991" y="1886" width="505" height="96"/>
        <path fill="rgb(0,0,0)" stroke="none" d="M 5011,1949 C 4993,1927 4985,1901 4995,1891 5004,1881 5020,1887 5031,1904 5053,1940 5118,1943 5322,1920 5425,1909 5479,1912 5491,1931 5502,1950 5480,1959 5424,1959 5377,1959 5273,1966 5192,1974 5073,1987 5039,1982 5011,1949 Z"/>
       </g>
      </g>
      <g class="com.sun.star.drawing.ClosedBezierShape">
       <g id="id132">
        <rect class="BoundingBox" stroke="none" fill="none" x="5271" y="1424" width="308" height="361"/>
        <path fill="rgb(0,0,0)" stroke="none" d="M 5419,1678 L 5271,1545 5315,1479 C 5339,1442 5370,1419 5384,1427 5400,1437 5392,1462 5364,1493 5321,1542 5321,1543 5368,1534 5394,1529 5424,1497 5433,1463 5450,1397 5463,1415 5491,1544 5503,1598 5497,1612 5463,1612 5432,1612 5443,1631 5504,1681 5550,1720 5583,1764 5577,1781 5572,1797 5504,1754 5419,1678 Z"/>
       </g>
      </g>
      <g class="com.sun.star.drawing.ClosedBezierShape">
       <g id="id133">
        <rect class="BoundingBox" stroke="none" fill="none" x="5060" y="1127" width="50" height="578"/>
        <path fill="rgb(0,0,0)" stroke="none" d="M 5076,1618 C 5051,1471 5057,1145 5085,1128 5101,1118 5109,1219 5109,1412 5109,1725 5101,1774 5076,1618 Z"/>
       </g>
      </g>
      <g class="com.sun.star.drawing.ClosedBezierShape">
       <g id="id134">
        <rect class="BoundingBox" stroke="none" fill="none" x="5260" y="1289" width="177" height="115"/>
        <path fill="rgb(0,0,0)" stroke="none" d="M 5338,1377 C 5398,1333 5392,1307 5330,1340 5273,1370 5243,1358 5269,1316 5278,1301 5318,1289 5358,1289 5457,1289 5462,1377 5363,1396 5304,1407 5301,1405 5338,1377 Z"/>
       </g>
      </g>
      <g class="com.sun.star.drawing.ClosedBezierShape">
       <g id="id135">
        <rect class="BoundingBox" stroke="none" fill="none" x="5288" y="1115" width="70" height="151"/>
        <path fill="rgb(0,0,0)" stroke="none" d="M 5307,1229 C 5307,1210 5300,1177 5292,1155 5282,1129 5291,1116 5317,1116 5345,1116 5357,1138 5357,1190 5357,1231 5346,1265 5332,1265 5318,1265 5307,1249 5307,1229 Z"/>
       </g>
      </g>
      <g class="com.sun.star.drawing.ClosedBezierShape">
       <g id="id136">
        <rect class="BoundingBox" stroke="none" fill="none" x="3450" y="709" width="73" height="129"/>
        <path fill="rgb(0,0,0)" stroke="none" d="M 3522,719 C 3522,741 3506,780 3486,806 3466,833 3450,843 3450,830 3450,786 3521,677 3522,719 Z"/>
       </g>
      </g>
     </g>
    </g>
   </g>
  </g>
 </g>
</svg>