<?xml version="1.0" encoding="UTF-8" standalone="no"?>
<!-- Created with Inkscape (http://www.inkscape.org/) -->

<svg
   version="1.1"
   id="svg2495"
   width="880"
   height="880"
   viewBox="0 0 880 880"
   sodipodi:docname="mouse-rat-vecto-pdv.svg"
   inkscape:version="1.2 (dc2aedaf03, 2022-05-15)"
   xmlns:inkscape="http://www.inkscape.org/namespaces/inkscape"
   xmlns:sodipodi="http://sodipodi.sourceforge.net/DTD/sodipodi-0.dtd"
   xmlns="http://www.w3.org/2000/svg"
   xmlns:svg="http://www.w3.org/2000/svg">
  <defs
     id="defs2499">
    <clipPath
       clipPathUnits="userSpaceOnUse"
       id="clipPath2511">
      <path
         d="M 0,660 H 660 V 0 H 0 Z"
         id="path2509" />
    </clipPath>
  </defs>
  <sodipodi:namedview
     id="namedview2497"
     pagecolor="#ffffff"
     bordercolor="#000000"
     borderopacity="0.25"
     inkscape:showpageshadow="2"
     inkscape:pageopacity="0.0"
     inkscape:pagecheckerboard="0"
     inkscape:deskcolor="#d1d1d1"
     showgrid="false"
     inkscape:zoom="0.95113636"
     inkscape:cx="441.05137"
     inkscape:cy="440.52569"
     inkscape:window-width="1920"
     inkscape:window-height="1017"
     inkscape:window-x="-8"
     inkscape:window-y="-8"
     inkscape:window-maximized="1"
     inkscape:current-layer="g2503">
    <inkscape:page
       x="0"
       y="0"
       id="page2501"
       width="880"
       height="880" />
  </sodipodi:namedview>
  <g
     id="g2503"
     inkscape:groupmode="layer"
     inkscape:label="Page 1"
     transform="matrix(1.3333333,0,0,-1.3333333,0,880)">
    <g
       id="g2505">
      <g
         id="g2507"
         clip-path="url(#clipPath2511)">
        <g
           id="g2513"
           transform="translate(399.7578,131.543)">
          <path
             d="m 0,0 c 86.633,0 157.291,7.671 157.291,17.078 0,9.404 -70.658,17.076 -157.291,17.076 -86.633,0 -157.291,-7.672 -157.291,-17.076 C -157.291,7.671 -86.633,0 0,0"
             style="fill:#e6e6e6;fill-opacity:1;fill-rule:evenodd;stroke:none"
             id="path2515" />
        </g>
        <g
           id="g2517"
           transform="translate(318.3691,159.4258)">
          <path
             d="m 0,0 c -20.135,8.355 -30.497,20.675 -39.801,31.739 -8.583,10.205 -15.991,19.012 -31.29,18.945 -15.136,-0.065 -20.723,-4.163 -25.674,-7.791 -8.051,-5.908 -15.074,-11.057 -34.521,-8.248 -19.252,2.782 -27.025,9.026 -34.671,15.167 -4.659,3.745 -9.254,7.434 -18.485,9.347 -20.161,4.176 -47.847,-20.066 -60.178,-33.825 4.945,25.721 42.214,54.827 64.9,50.128 25.257,-5.232 32.627,-17.133 51.392,-19.846 10.938,-1.58 14.734,1.204 19.088,4.397 7.517,5.516 16.006,11.741 38.026,11.836 25.268,0.108 35.637,-12.221 47.655,-26.511 7.74,-9.204 16.359,-19.453 31.646,-25.797 z"
             style="fill:#6b564f;fill-opacity:1;fill-rule:evenodd;stroke:none"
             id="path2519" />
        </g>
        <g
           id="g2521"
           transform="translate(403.5801,513.3301)">
          <path
             d="m 0,0 c -1.331,-28.272 9.356,-46.419 29.894,-64.846 16.933,-15.193 24.814,-8.206 44.773,-2.057 15.901,4.901 41.44,11.236 52.191,24.586 5.901,8.658 9.019,20.088 10.141,30.399 1.436,30.478 -0.819,71.904 -35.846,82.811 C 90.604,74.178 80.338,72.932 69.926,69.859 54.288,65.042 30.083,53.242 19.014,41.78 7.602,29.968 1.765,16.217 0,0"
             style="fill:#99948d;fill-opacity:1;fill-rule:evenodd;stroke:none"
             id="path2523" />
        </g>
        <g
           id="g2525"
           transform="translate(435.998,484.0913)">
          <path
             d="m 0,0 c 53.996,0.658 108.103,-26.471 140.321,-69.62 39.612,-71.244 -76.146,-30.106 -74.336,-86.256 4.012,-55.319 42.524,-112.26 -18.139,-157.192 -67.782,-46.575 -166.674,-28.406 -194.183,56.433 -23.803,73.402 5.026,183.653 64.824,232.977 C -56.705,-6.446 -29.507,-1.664 0,0"
             style="fill:#b0aba4;fill-opacity:1;fill-rule:evenodd;stroke:none"
             id="path2527" />
        </g>
        <g
           id="g2529"
           transform="translate(584.4688,387.7275)">
          <path
             d="m 0,0 c -1.999,-21.579 -35.926,-20.643 -59.645,-29.554 l -0.003,0.004 c -84.558,-4.475 4.584,-151.755 -70.613,-202.75 -44.097,-16.966 -94.135,-11.103 -128.805,17.978 50.154,17.384 43.086,124.958 78.297,179.305 C -147.087,16.97 -71.723,16.593 0,0"
             style="fill:#dbd6d0;fill-opacity:1;fill-rule:evenodd;stroke:none"
             id="path2531" />
        </g>
        <g
           id="g2533"
           transform="translate(558.4658,386.1826)">
          <path
             d="M 0,0 C 2.954,17.832 22.498,20.753 35.811,13.107 62.418,-2.177 20.206,-37.931 3.272,-13.544 0.514,-9.571 -0.662,-4.794 0,0"
             style="fill:#1a1a1a;fill-opacity:1;fill-rule:evenodd;stroke:none"
             id="path2535" />
        </g>
        <g
           id="g2537"
           transform="translate(463.3291,448.2495)">
          <path
             d="M 0,0 C 10.631,-0.924 18.5,-10.293 17.577,-20.926 16.651,-31.557 7.282,-39.424 -3.35,-38.501 c -10.63,0.926 -18.5,10.293 -17.574,20.925 C -19.999,-6.944 -10.631,0.924 0,0"
             style="fill:#1a1a1a;fill-opacity:1;fill-rule:evenodd;stroke:none"
             id="path2539" />
        </g>
        <g
           id="g2541"
           transform="translate(453.8164,442.0576)">
          <path
             d="m 0,0 c 3.657,-0.319 6.366,-3.541 6.046,-7.2 -0.317,-3.659 -3.54,-6.365 -7.199,-6.048 -3.66,0.318 -6.367,3.543 -6.049,7.201 C -6.883,-2.389 -3.659,0.318 0,0"
             style="fill:#e6e6e6;fill-opacity:1;fill-rule:evenodd;stroke:none"
             id="path2543" />
        </g>
        <g
           id="g2545"
           transform="translate(516.4053,361.6318)">
          <path
             d="M 0,0 C 16.004,14.665 -19.938,16.042 -69.031,14.053 -44.496,12.698 -19.283,12.818 0,0"
             style="fill:#b0aba4;fill-opacity:1;fill-rule:evenodd;stroke:none"
             id="path2547" />
        </g>
        <g
           id="g2549"
           transform="translate(432.4268,502.7007)">
          <path
             d="m 0,0 c -3.572,-28.077 -17.232,-44.107 -40.642,-58.709 -19.302,-12.041 -25.86,-3.798 -44.456,5.705 -14.818,7.574 -38.878,18.223 -47.162,33.23 -4.317,9.547 -5.415,21.344 -4.738,31.692 3.848,30.268 13.223,70.683 49.606,75.378 10.96,1.414 20.856,-1.588 30.582,-6.412 C -42.24,73.44 -20.437,57.637 -11.511,44.437 -2.313,30.83 1.064,16.277 0,0"
             style="fill:#b0aba4;fill-opacity:1;fill-rule:evenodd;stroke:none"
             id="path2551" />
        </g>
        <g
           id="g2553"
           transform="translate(420.3125,502.6182)">
          <path
             d="m 0,0 c 0.578,10.597 -1.431,19.664 -7.46,28.582 -6.583,9.74 -25.686,23.114 -36.163,28.405 -5.117,2.584 -10.757,4.767 -16.59,4.015 -21.375,-2.758 -26.393,-36.359 -28.611,-53.653 -0.309,-5.741 0.122,-13.001 2.253,-18.45 5.343,-7.83 28.84,-18.735 36.564,-22.683 3.47,-1.773 12.595,-7.453 16.595,-8.904 1.313,0.502 3.145,1.614 4.058,2.183 C -12.408,-29.935 -2.754,-20.075 0,0"
             style="fill:#827c75;fill-opacity:1;fill-rule:evenodd;stroke:none"
             id="path2555" />
        </g>
        <g
           id="g2557"
           transform="translate(294.1523,183.6221)">
          <path
             d="M 0,0 C -40.82,63.194 18.661,81.509 39.364,68.75 63.835,53.669 58.323,13.075 76.812,-8.939 c 6.079,-7.239 12.08,-5.995 21.46,-4.797 13.558,1.728 20.403,-20.638 5.723,-23.783 -22.23,-4.761 -46.564,-1.803 -67.95,5.912 C 21.014,-26.185 8.669,-13.424 0,0"
             style="fill:#99948d;fill-opacity:1;fill-rule:evenodd;stroke:none"
             id="path2559" />
        </g>
        <g
           id="g2561"
           transform="translate(524.8281,177.9902)">
          <path
             d="m 0,0 c 39.007,56.248 -1.281,83.241 -18.171,73.756 -18.832,-10.578 -32.181,-79.04 -43.866,-75.903 -21.138,5.675 -28.796,-15.48 -7.706,-22.615 16.427,-5.555 22.297,-5.437 38.926,-1.029 C -19.13,-22.694 -8.286,-11.949 0,0"
             style="fill:#99948d;fill-opacity:1;fill-rule:evenodd;stroke:none"
             id="path2563" />
        </g>
        <g
           id="g2565"
           transform="translate(367.9746,314.1904)">
          <path
             d="M 0,0 C -6.167,21.755 19.399,33.149 33.265,24.605 56.234,10.45 29.728,-9.725 56.399,-26.672 77.899,-40.334 59.267,-56.764 34.102,-44.258 20.386,-37.443 7.616,-26.859 0,0"
             style="fill:#99948d;fill-opacity:1;fill-rule:evenodd;stroke:none"
             id="path2567" />
        </g>
        <g
           id="g2569"
           transform="translate(511.5674,302.9023)">
          <path
             d="M 0,0 C 7.209,20.591 -8.014,35.534 -18.397,29.1 -35.596,18.439 -21.021,-5.311 -41.066,-18.192 -57.226,-28.577 -47.305,-47.493 -28.893,-38.777 -18.858,-34.027 -8.903,-25.422 0,0"
             style="fill:#99948d;fill-opacity:1;fill-rule:evenodd;stroke:none"
             id="path2571" />
        </g>
      </g>
    </g>
  </g>
</svg>
